<svg width="119" height="85" viewBox="0 0 119 85" fill="none" xmlns="http://www.w3.org/2000/svg">
<path d="M62.8904 82.5938V84.9073H62.612V82.0806H62.8434L64.6977 84.4376V82.0841H64.9778V84.9073H64.7186L62.8904 82.5938Z" fill="#368ADD"/>
<path d="M33.8439 83.4713C33.8439 83.2991 33.8735 83.1286 33.9344 82.9633C33.9935 82.7981 34.0805 82.6468 34.1953 82.5093C34.3101 82.3719 34.451 82.2641 34.618 82.1823C34.785 82.1005 34.9746 82.0605 35.1868 82.0605C35.4391 82.0605 35.6548 82.1179 35.8339 82.2345C36.0131 82.3493 36.1453 82.4971 36.2305 82.6781L36.0114 82.8137C35.9505 82.6885 35.8739 82.5911 35.78 82.5163C35.6861 82.4432 35.5869 82.391 35.4826 82.358C35.3782 82.3267 35.2738 82.311 35.1694 82.311C34.999 82.311 34.8494 82.3458 34.7206 82.4119C34.5902 82.4798 34.4806 82.5702 34.3919 82.6833C34.3032 82.7963 34.2353 82.9216 34.1901 83.0625C34.1449 83.2017 34.1223 83.3426 34.1223 83.4869C34.1223 83.6435 34.1484 83.7931 34.2023 83.9357C34.2545 84.0801 34.3293 84.2054 34.4249 84.3167C34.5206 84.4263 34.6337 84.515 34.7624 84.5793C34.8911 84.6437 35.0303 84.6768 35.1816 84.6768C35.2877 84.6768 35.3973 84.6576 35.5086 84.6211C35.62 84.5846 35.7244 84.5272 35.8218 84.4506C35.9192 84.3741 35.9975 84.2749 36.0549 84.1514L36.2862 84.2715C36.2271 84.4124 36.1366 84.5324 36.0148 84.6298C35.8931 84.729 35.7574 84.802 35.6061 84.8524C35.4565 84.9029 35.3086 84.929 35.166 84.929C34.9729 84.929 34.7937 84.8872 34.6319 84.8037C34.4702 84.7203 34.3293 84.6089 34.2127 84.4698C34.0962 84.3306 34.004 84.174 33.9396 84.0001C33.8752 83.8261 33.8439 83.6504 33.8439 83.473V83.4713Z" fill="#368ADD"/>
<path d="M37.8692 84.9267C37.6709 84.9267 37.49 84.8866 37.3282 84.8066C37.1664 84.7266 37.0273 84.6188 36.9107 84.4831C36.7942 84.3457 36.7037 84.1926 36.6393 84.0221C36.575 83.8499 36.5437 83.6742 36.5437 83.4933C36.5437 83.3124 36.5767 83.1263 36.6428 82.954C36.7089 82.7818 36.8029 82.6305 36.9229 82.4966C37.0429 82.3626 37.1855 82.2565 37.3473 82.1782C37.5091 82.0999 37.6848 82.0617 37.8727 82.0617C38.071 82.0617 38.2519 82.1017 38.4136 82.1852C38.5754 82.2687 38.7146 82.3783 38.8294 82.5157C38.9442 82.6548 39.0347 82.8079 39.0973 82.9784C39.1616 83.1471 39.1929 83.3228 39.1929 83.5003C39.1929 83.6881 39.1599 83.8673 39.0938 84.0395C39.0277 84.21 38.9338 84.3631 38.8137 84.497C38.6954 84.6309 38.5545 84.7353 38.3928 84.8136C38.231 84.8919 38.0553 84.9284 37.8674 84.9284L37.8692 84.9267ZM36.822 83.4933C36.822 83.6481 36.8463 83.796 36.8985 83.9369C36.949 84.0795 37.0203 84.2048 37.1142 84.3161C37.2082 84.4257 37.3178 84.5144 37.4465 84.5787C37.5752 84.6431 37.7161 84.6762 37.8709 84.6762C38.0327 84.6762 38.1788 84.6414 38.3075 84.5753C38.4363 84.5074 38.5459 84.417 38.638 84.3039C38.7302 84.1908 38.7998 84.0656 38.8468 83.9247C38.8937 83.7838 38.9181 83.6394 38.9181 83.4933C38.9181 83.3402 38.8937 83.1924 38.8416 83.0515C38.7894 82.9106 38.7198 82.7836 38.6241 82.6722C38.5302 82.5609 38.4189 82.4739 38.2919 82.4096C38.1649 82.3452 38.024 82.3139 37.8692 82.3139C37.7144 82.3139 37.5665 82.347 37.4378 82.4131C37.3091 82.4792 37.1995 82.5696 37.1073 82.6809C37.0151 82.7923 36.9455 82.921 36.8968 83.0602C36.8481 83.2011 36.8237 83.3454 36.8237 83.4898L36.822 83.4933Z" fill="#368ADD"/>
<path d="M42.225 84.9075V82.6061L41.2021 84.3944H41.0264L40.0001 82.6061V84.9075H39.7218V82.0808H40.0088L41.1117 84.0169L42.2232 82.0808H42.505V84.9075H42.2267H42.225Z" fill="#368ADD"/>
<path d="M43.213 84.9075V82.0808H44.3837C44.5054 82.0808 44.6185 82.1052 44.7211 82.1573C44.8238 82.2095 44.9107 82.2756 44.9855 82.3626C45.0603 82.4496 45.1195 82.5435 45.1612 82.6496C45.203 82.754 45.2256 82.8601 45.2256 82.9697C45.2256 83.1245 45.1908 83.2689 45.1247 83.4063C45.0568 83.5437 44.9612 83.6533 44.8394 83.7386C44.7176 83.8238 44.5733 83.8673 44.4098 83.8673H43.4948V84.911H43.2147L43.213 84.9075ZM43.4913 83.6185H44.3958C44.5072 83.6185 44.6046 83.5872 44.6863 83.5263C44.7681 83.4655 44.8325 83.3854 44.8777 83.288C44.9229 83.1889 44.9455 83.0845 44.9455 82.9697C44.9455 82.8549 44.9194 82.7453 44.8655 82.6479C44.8116 82.5487 44.742 82.4722 44.655 82.4148C44.568 82.3574 44.4741 82.3296 44.3697 82.3296H43.4895V83.6203L43.4913 83.6185Z" fill="#368ADD"/>
<path d="M46.3701 82.0808H46.605L47.7791 84.9075H47.4852L47.132 84.0238H45.8396L45.4865 84.9075H45.1873L46.3701 82.0808ZM47.0433 83.8047L46.4849 82.4061L45.9266 83.8047H47.0433Z" fill="#368ADD"/>
<path d="M48.1862 84.9075V82.0808H49.3813C49.503 82.0808 49.6144 82.1052 49.7153 82.1573C49.8161 82.2095 49.9049 82.2756 49.9797 82.3626C50.0545 82.4496 50.1136 82.5435 50.1553 82.6496C50.1971 82.754 50.218 82.8601 50.218 82.9697C50.218 83.1054 50.1919 83.2324 50.1397 83.3524C50.0875 83.4724 50.0144 83.5733 49.9205 83.6551C49.8266 83.7368 49.7152 83.7925 49.5883 83.8186L50.2806 84.9093H49.9657L49.3012 83.8656H48.4645V84.9093H48.1862V84.9075ZM48.4645 83.6185H49.3882C49.4996 83.6185 49.597 83.5872 49.6787 83.5263C49.7605 83.4655 49.8248 83.3854 49.8701 83.2846C49.9153 83.1854 49.9379 83.0793 49.9379 82.968C49.9379 82.8566 49.9118 82.7488 49.8596 82.6514C49.8074 82.554 49.7379 82.4757 49.6526 82.4165C49.5657 82.3574 49.47 82.3261 49.3639 82.3261H48.4645V83.6168V83.6185Z" fill="#368ADD"/>
<path d="M52.6846 84.6605V84.9075H50.7851V82.0808H52.6481V82.3278H51.0634V83.3472H52.4463V83.582H51.0634V84.6605H52.6846Z" fill="#368ADD"/>
<path d="M54.1301 83.9473V83.6967H55.2924V83.9473H54.1301Z" fill="#368ADD"/>
<path d="M56.7342 83.4708C56.7342 83.2986 56.7637 83.1281 56.8246 82.9629C56.8838 82.7976 56.9707 82.6463 57.0855 82.5089C57.2004 82.3714 57.3413 82.2636 57.5082 82.1818C57.6752 82.1001 57.8648 82.0601 58.0771 82.0601C58.3293 82.0601 58.545 82.1175 58.7242 82.234C58.9033 82.3488 59.0355 82.4967 59.1208 82.6776L58.9016 82.8133C58.8407 82.688 58.7642 82.5906 58.6702 82.5158C58.5763 82.4428 58.4772 82.3906 58.3728 82.3575C58.2684 82.3262 58.164 82.3105 58.0597 82.3105C57.8892 82.3105 57.7396 82.3453 57.6109 82.4114C57.4804 82.4793 57.3708 82.5697 57.2821 82.6828C57.1934 82.7959 57.1255 82.9211 57.0803 83.062C57.0351 83.2012 57.0125 83.3421 57.0125 83.4865C57.0125 83.643 57.0386 83.7926 57.0925 83.9353C57.1447 84.0796 57.2195 84.2049 57.3152 84.3162C57.4108 84.4258 57.5239 84.5145 57.6526 84.5789C57.7814 84.6432 57.9205 84.6763 58.0718 84.6763C58.178 84.6763 58.2875 84.6572 58.3989 84.6206C58.5102 84.5841 58.6146 84.5267 58.712 84.4501C58.8094 84.3736 58.8877 84.2745 58.9451 84.151L59.1764 84.271C59.1173 84.4119 59.0268 84.5319 58.9051 84.6293C58.7833 84.7267 58.6476 84.8015 58.4963 84.852C58.3467 84.9024 58.1988 84.9285 58.0562 84.9285C57.8631 84.9285 57.6839 84.8868 57.5222 84.8033C57.3604 84.7198 57.2195 84.6084 57.1029 84.4693C56.9864 84.3301 56.8942 84.1736 56.8298 83.9996C56.7655 83.8257 56.7342 83.65 56.7342 83.4725V83.4708Z" fill="#368ADD"/>
<path d="M60.7595 84.9267C60.5612 84.9267 60.3803 84.8866 60.2185 84.8066C60.0567 84.7266 59.9175 84.6188 59.801 84.4831C59.6844 84.3457 59.594 84.1926 59.5296 84.0221C59.4653 83.8499 59.434 83.6742 59.434 83.4933C59.434 83.3124 59.467 83.1263 59.5331 82.954C59.5992 82.7818 59.6931 82.6305 59.8132 82.4966C59.9332 82.3626 60.0758 82.2565 60.2376 82.1782C60.3994 82.0999 60.5751 82.0617 60.7629 82.0617C60.9613 82.0617 61.1422 82.1017 61.3039 82.1852C61.4657 82.2687 61.6049 82.3783 61.7197 82.5157C61.8345 82.6548 61.9249 82.8079 61.9876 82.9784C62.0519 83.1471 62.0832 83.3228 62.0832 83.5003C62.0832 83.6881 62.0502 83.8673 61.9841 84.0395C61.918 84.21 61.824 84.3631 61.704 84.497C61.5857 84.6309 61.4448 84.7353 61.2831 84.8136C61.1213 84.8901 60.9456 84.9284 60.7577 84.9284L60.7595 84.9267ZM59.7123 83.4933C59.7123 83.6481 59.7366 83.796 59.7888 83.9369C59.8393 84.0795 59.9106 84.2048 60.0045 84.3161C60.0984 84.4257 60.208 84.5144 60.3368 84.5787C60.4655 84.6431 60.6064 84.6762 60.7612 84.6762C60.923 84.6762 61.0691 84.6414 61.1978 84.5753C61.3266 84.5074 61.4361 84.417 61.5283 84.3039C61.6205 84.1908 61.6901 84.0656 61.7371 83.9247C61.784 83.7838 61.8084 83.6394 61.8084 83.4933C61.8084 83.3402 61.784 83.1924 61.7319 83.0515C61.6797 82.9106 61.6101 82.7836 61.5144 82.6722C61.4205 82.5609 61.3092 82.4739 61.1822 82.4096C61.0552 82.3452 60.9143 82.3139 60.7595 82.3139C60.6047 82.3139 60.4568 82.347 60.3281 82.4131C60.1993 82.4792 60.0898 82.5696 59.9976 82.6809C59.9054 82.794 59.8358 82.921 59.7871 83.0602C59.7384 83.2011 59.714 83.3454 59.714 83.4898L59.7123 83.4933Z" fill="#368ADD"/>
<path d="M67.3365 82.6095C67.2965 82.5642 67.2496 82.5242 67.1974 82.4877C67.1452 82.4529 67.0843 82.4216 67.0182 82.3938C66.9521 82.3677 66.8808 82.3451 66.806 82.3294C66.7312 82.3138 66.6494 82.3068 66.5659 82.3068C66.3189 82.3068 66.138 82.3538 66.0215 82.4477C65.9067 82.5416 65.8493 82.6704 65.8493 82.8321C65.8493 82.9435 65.8771 83.0304 65.931 83.0948C65.9849 83.1592 66.0702 83.2096 66.1885 83.2496C66.305 83.2896 66.4529 83.3314 66.6338 83.3731C66.8356 83.4149 67.0095 83.4653 67.1556 83.5245C67.3018 83.5836 67.4148 83.6619 67.4931 83.761C67.5731 83.8602 67.6131 83.9941 67.6131 84.1646C67.6131 84.2933 67.5888 84.4064 67.5366 84.5021C67.4861 84.5977 67.4148 84.6778 67.3261 84.7404C67.2356 84.8047 67.1278 84.8517 67.0043 84.8813C66.8791 84.9109 66.7434 84.9265 66.5938 84.9265C66.4442 84.9265 66.3085 84.9109 66.1745 84.8813C66.0406 84.8517 65.9136 84.8047 65.7953 84.7456C65.677 84.6865 65.564 84.6099 65.4613 84.516L65.6005 84.2898C65.651 84.342 65.7118 84.3925 65.7814 84.4394C65.851 84.4864 65.9293 84.5282 66.0163 84.5647C66.1032 84.6012 66.1954 84.6291 66.2946 84.6499C66.3937 84.6691 66.4981 84.6795 66.6042 84.6795C66.8303 84.6795 67.006 84.6395 67.1313 84.556C67.2565 84.4742 67.3209 84.3525 67.3209 84.1907C67.3209 84.0741 67.2896 83.9802 67.2252 83.9106C67.1608 83.8411 67.0652 83.7819 66.9382 83.7384C66.8095 83.6932 66.6529 83.6497 66.4685 83.6062C66.272 83.561 66.1067 83.5105 65.971 83.4549C65.8371 83.3992 65.7345 83.3262 65.6666 83.234C65.5988 83.1418 65.5657 83.0217 65.5657 82.8704C65.5657 82.6947 65.6092 82.5486 65.6944 82.4268C65.7814 82.3051 65.8997 82.2146 66.051 82.152C66.2024 82.0894 66.3763 82.058 66.5729 82.058C66.6981 82.058 66.8129 82.0702 66.9208 82.0963C67.0286 82.1207 67.1278 82.1572 67.22 82.2059C67.3122 82.2546 67.3974 82.3138 67.4774 82.3851L67.3418 82.6077L67.3365 82.6095Z" fill="#368ADD"/>
<path d="M69.2517 84.9267C69.0291 84.9267 68.8412 84.8866 68.6864 84.8066C68.5333 84.7266 68.4098 84.6205 68.3194 84.4866C68.2289 84.3526 68.1628 84.2013 68.1228 84.0308C68.081 83.8603 68.0602 83.6864 68.0602 83.5055V82.0808H68.335V83.5055C68.335 83.6516 68.3507 83.796 68.382 83.9351C68.4115 84.076 68.462 84.203 68.5316 84.3144C68.6011 84.4257 68.6933 84.5144 68.8099 84.5787C68.9264 84.6431 69.0726 84.6762 69.2482 84.6762C69.4239 84.6762 69.5788 84.6414 69.697 84.5753C69.8153 84.5074 69.9075 84.417 69.9754 84.3074C70.0432 84.1961 70.0919 84.0708 70.1215 83.9317C70.1511 83.7925 70.165 83.6516 70.165 83.5072V82.0826H70.4433V83.5072C70.4433 83.6951 70.4224 83.876 70.3789 84.0499C70.3372 84.2222 70.2676 84.3735 70.1737 84.504C70.0797 84.6344 69.9562 84.7371 69.8049 84.8153C69.6536 84.8919 69.4692 84.9301 69.2517 84.9301V84.9267Z" fill="#368ADD"/>
<path d="M71.1078 84.9075V82.0808H71.3861V84.6605H73.0195V84.9075H71.1078Z" fill="#368ADD"/>
<path d="M74.9904 82.3278H73.9832V84.9075H73.7049V82.3278H72.6977V82.0808H74.9904V82.3278Z" fill="#368ADD"/>
<path d="M76.215 83.9473V83.6967H77.3773V83.9473H76.215Z" fill="#368ADD"/>
<path d="M81.2369 82.0808V84.9075H80.9621V83.5855H79.2852V84.9075H79.0069V82.0808H79.2852V83.3385H80.9621V82.0808H81.2369Z" fill="#368ADD"/>
<path d="M83.8445 84.6605V84.9075H81.9449V82.0808H83.808V82.3278H82.2233V83.3472H83.6062V83.582H82.2233V84.6605H83.8445Z" fill="#368ADD"/>
<path d="M85.2465 82.0808H85.4813L86.6555 84.9075H86.3597L86.0066 84.0238H84.7142L84.361 84.9075H84.0636L85.2465 82.0808ZM85.9197 83.8047L85.3613 82.4061L84.8029 83.8047H85.9197Z" fill="#368ADD"/>
<path d="M87.0626 84.9075V82.0808H87.3409V84.6605H88.9743V84.9075H87.0626Z" fill="#368ADD"/>
<path d="M68.0376 34.5868L51.1956 19.0912L61.5109 0L72.1306 19.0912L65.2665 25.3291L65.0665 25.2838L62.9112 23.1303L67.6636 18.6285L61.7249 11.2894L55.6609 18.6285L68.7264 30.7459L79.6766 22.2553C80.5742 22.3788 81.0265 23.1007 81.9049 23.1999L81.7571 23.4956C82.2998 23.2956 82.7625 23.687 83.2531 23.934C84.9421 24.7811 86.659 25.9448 88.249 26.9764L68.0358 34.5902L68.0376 34.5868Z" fill="#368ADD"/>
<path d="M101.16 37.716C103.781 40.6906 106.342 43.733 108.507 47.0642C108.638 47.2642 109.506 48.6123 109.429 48.6906L71.8679 37.716H101.161H101.16Z" fill="#368ADD"/>
<path d="M51.3069 37.716L14.1318 48.5393C13.9109 48.4471 14.1127 48.2488 14.1788 48.1218C15.353 45.8291 18.0614 42.4249 19.7765 40.4244C20.5715 39.4973 21.4934 38.6988 22.1684 37.716H51.3069Z" fill="#368ADD"/>
<path d="M35.0755 27.0478C35.9748 26.2963 37.0707 25.6144 38.0814 25.023C38.2762 24.9099 38.5963 24.7551 38.8763 24.5968C39.5374 24.2263 43.2164 22.2085 43.6478 22.2519L54.3528 30.7408L54.7911 30.612L58.0371 27.514L60.2828 29.4327L60.4376 29.8954L55.1025 34.6338L35.0772 27.0443L35.0755 27.0478Z" fill="#368ADD"/>
<path d="M70.3199 36.0166L90.1885 28.2984C93.518 30.5267 96.6178 33.1412 99.3819 36.0166H70.3199Z" fill="#368ADD"/>
<path d="M23.9461 36.0167C26.6876 33.1064 29.8309 30.5563 33.1359 28.295L53.0064 36.0167H23.9444H23.9461Z" fill="#368ADD"/>
<path d="M64.3723 17.0507H62.4624V15.1407H60.9681V17.0507H59.0564V18.5467H60.9681V20.4567H62.4624V18.5467H64.3723V17.0507Z" fill="#368ADD"/>
<path d="M12.401 74.0843H6.73368V70.6853H5.66736V78.607H6.73368V75.0932H12.401V78.607H13.4656V70.6853H12.401V74.0843Z" fill="#368ADD"/>
<path d="M19.0441 75.0027H22.3527V74.0512H19.0441V71.6368H24.6541V70.6853H17.9778V78.607H24.6993V77.6555H19.0441V75.0027Z" fill="#368ADD"/>
<path d="M32.5863 70.6853L28.5298 78.607H29.6883L30.7477 76.5892H35.1556L36.2115 78.6087H37.3822L33.3361 70.6853H32.5881H32.5863ZM31.2226 75.6377L32.9481 72.1934L34.6824 75.6377H31.2226Z" fill="#368ADD"/>
<path d="M42.5502 70.6853H41.4839V78.607H47.8314V77.6555H42.5502V70.6853Z" fill="#368ADD"/>
<path d="M51.6061 71.6368H54.8259V78.607H55.8905V71.6368H59.1103V70.6853H51.6061V71.6368Z" fill="#368ADD"/>
<path d="M69.958 74.0843H64.2889V70.6853H63.2243V78.607H64.2889V75.0932H69.958V78.607H71.0226V70.6853H69.958V74.0843Z" fill="#368ADD"/>
<path d="M81.6649 70.6853H76.5977C76.2132 70.6853 75.9384 70.7496 75.7766 70.8784C75.6148 71.0071 75.5331 71.2593 75.5331 71.6368V77.6694C75.5331 78.0469 75.6201 78.3026 75.794 78.4383C75.9366 78.5513 76.2063 78.6087 76.5977 78.6087H81.6875C82.0354 78.6087 82.2998 78.5357 82.4807 78.3878C82.6616 78.24 82.7521 77.9964 82.7521 77.6572V76.116L81.6875 75.8221V77.659H76.5977V71.6402H81.6875V73.4546L82.7521 73.2389V72.1395C82.7521 71.5498 82.7138 71.1845 82.639 71.0401C82.5103 70.8053 82.185 70.6887 81.6631 70.6887L81.6649 70.6853Z" fill="#368ADD"/>
<path d="M90.8009 70.6853L86.7443 78.607H87.9028L88.9622 76.5892H93.3701L94.426 78.6087H95.5967L91.5506 70.6853H90.8026H90.8009ZM89.4353 75.6377L91.1609 72.1934L92.8952 75.6377H89.4353Z" fill="#368ADD"/>
<path d="M104.376 75.3889H104.8C105.616 75.3889 106.178 75.2532 106.488 74.9836C106.744 74.7574 106.872 74.4234 106.872 73.9799V72.717C106.872 72.002 106.785 71.5063 106.613 71.228C106.387 70.8661 105.933 70.687 105.254 70.687H99.6985V78.6087H100.763V75.3889H102.497L105.682 78.6087H107.147L103.962 75.3871C104.098 75.3889 104.235 75.3889 104.376 75.3889ZM100.763 74.4356V71.6367H104.816C105.31 71.6367 105.613 71.7237 105.726 71.8959C105.802 72.016 105.841 72.3395 105.841 72.8666V73.5659C105.841 73.8668 105.787 74.0773 105.682 74.1973C105.547 74.3556 105.289 74.4339 104.912 74.4339H100.763V74.4356Z" fill="#368ADD"/>
<path d="M112.461 77.6555V75.0271H117.986V73.9712H112.461V71.6368H118.071V70.6853H111.395V78.607H118.116V77.6555H112.461Z" fill="#368ADD"/>
<path d="M24.2766 51.8226L18.5797 66.5963H16.261L12.1957 56.3749L8.07307 66.5963H5.6969L0 51.8226H3.55034L7.30073 61.7291L11.2233 51.8226H13.6291L17.6369 61.7291L21.2168 51.8226H24.2801H24.2766Z" fill="#368ADD"/>
<path d="M48.4976 63.101C48.4976 64.4752 48.2349 65.4007 47.7096 65.879C47.1843 66.3556 46.2258 66.594 44.8324 66.594H33.9518C32.5585 66.594 31.6 66.3556 31.0747 65.879C30.5493 65.4024 30.2867 64.4752 30.2867 63.101V55.3132C30.2867 53.939 30.5493 53.0136 31.0747 52.5352C31.5982 52.0586 32.5585 51.8203 33.9518 51.8203H44.8324C46.2258 51.8203 47.1843 52.0586 47.7096 52.5352C48.2349 53.0118 48.4976 53.939 48.4976 55.3132V63.101ZM45.0603 63.8177V54.4556H33.7239V63.8177H45.0603Z" fill="#368ADD"/>
<path d="M107.892 66.594H104.026L102.252 63.3585H92.89L91.1713 66.594H87.7358L96.0959 51.8203H99.4166L107.892 66.594ZM100.819 60.697L97.6406 54.6853L94.3477 60.697H100.819Z" fill="#368ADD"/>
<path d="M117.511 66.594H114.076V51.8203H117.511V66.594Z" fill="#368ADD"/>
<path d="M74.3136 66.594H68.7889L59.9418 60.0951V66.594H56.4784V51.8203H59.9418V57.9764L68.1297 51.8203H73.1116L63.3199 58.7766L74.3136 66.5922V66.594Z" fill="#368ADD"/>
</svg>
