<svg width="188" height="135" viewBox="0 0 188 135" fill="none" xmlns="http://www.w3.org/2000/svg">
<path d="M99.9153 131.218V134.894H99.4731V130.403H99.8406L102.787 134.147V130.408H103.232V134.894H102.82L99.9153 131.218Z" fill="white"/>
<path d="M53.7686 132.612C53.7686 132.338 53.8155 132.067 53.9123 131.805C54.0062 131.542 54.1444 131.302 54.3268 131.084C54.5092 130.865 54.7331 130.694 54.9984 130.564C55.2637 130.434 55.5649 130.371 55.9021 130.371C56.3028 130.371 56.6455 130.462 56.9301 130.647C57.2148 130.829 57.4248 131.064 57.5602 131.352L57.212 131.567C57.1153 131.368 56.9937 131.213 56.8444 131.095C56.6952 130.979 56.5377 130.896 56.3719 130.843C56.2061 130.793 56.0402 130.769 55.8744 130.769C55.6036 130.769 55.3659 130.824 55.1614 130.929C54.9541 131.037 54.78 131.18 54.6391 131.36C54.4982 131.54 54.3904 131.739 54.3185 131.962C54.2467 132.184 54.2107 132.407 54.2107 132.637C54.2107 132.885 54.2522 133.123 54.3379 133.35C54.4208 133.579 54.5396 133.778 54.6916 133.955C54.8436 134.129 55.0232 134.27 55.2277 134.372C55.4322 134.475 55.6533 134.527 55.8938 134.527C56.0623 134.527 56.2365 134.497 56.4133 134.439C56.5902 134.381 56.756 134.289 56.9108 134.168C57.0655 134.046 57.1899 133.889 57.2811 133.692L57.6487 133.883C57.5547 134.107 57.411 134.298 57.2175 134.452C57.0241 134.61 56.8085 134.726 56.5681 134.806C56.3304 134.886 56.0955 134.928 55.8689 134.928C55.5621 134.928 55.2775 134.861 55.0205 134.729C54.7635 134.596 54.5396 134.419 54.3544 134.198C54.1693 133.977 54.0228 133.728 53.9206 133.452C53.8183 133.176 53.7686 132.897 53.7686 132.615V132.612Z" fill="white"/>
<path d="M60.1635 134.923C59.8485 134.923 59.5611 134.86 59.3041 134.733C59.047 134.605 58.826 134.434 58.6408 134.218C58.4556 134 58.3119 133.757 58.2097 133.486C58.1074 133.213 58.0577 132.933 58.0577 132.646C58.0577 132.359 58.1102 132.063 58.2152 131.789C58.3202 131.516 58.4695 131.275 58.6601 131.062C58.8508 130.85 59.0774 130.681 59.3345 130.557C59.5915 130.432 59.8706 130.372 60.1691 130.372C60.4841 130.372 60.7715 130.435 61.0285 130.568C61.2856 130.7 61.5066 130.875 61.689 131.093C61.8714 131.314 62.0151 131.557 62.1146 131.828C62.2169 132.096 62.2666 132.375 62.2666 132.657C62.2666 132.956 62.2141 133.24 62.1091 133.514C62.0041 133.785 61.8549 134.028 61.6642 134.241C61.4762 134.453 61.2524 134.619 60.9954 134.744C60.7384 134.868 60.4592 134.926 60.1608 134.926L60.1635 134.923ZM58.4999 132.646C58.4999 132.892 58.5385 133.127 58.6215 133.351C58.7016 133.577 58.8149 133.776 58.9641 133.953C59.1134 134.127 59.2875 134.268 59.492 134.37C59.6965 134.473 59.9203 134.525 60.1663 134.525C60.4233 134.525 60.6555 134.47 60.86 134.365C61.0645 134.257 61.2386 134.113 61.3851 133.934C61.5315 133.754 61.6421 133.555 61.7167 133.331C61.7913 133.108 61.83 132.878 61.83 132.646C61.83 132.403 61.7913 132.168 61.7084 131.944C61.6255 131.72 61.5149 131.518 61.3629 131.342C61.2137 131.165 61.0368 131.027 60.8351 130.924C60.6333 130.822 60.4095 130.772 60.1635 130.772C59.9176 130.772 59.6827 130.825 59.4782 130.93C59.2737 131.035 59.0996 131.179 58.9531 131.355C58.8066 131.532 58.6961 131.737 58.6187 131.958C58.5413 132.182 58.5026 132.411 58.5026 132.64L58.4999 132.646Z" fill="white"/>
<path d="M67.0837 134.894V131.238L65.4587 134.079H65.1795L63.549 131.238V134.894H63.1068V130.403H63.5628L65.315 133.479L67.0809 130.403H67.5286V134.894H67.0864H67.0837Z" fill="white"/>
<path d="M68.6534 134.894V130.403H70.5133C70.7067 130.403 70.8863 130.442 71.0494 130.525C71.2124 130.608 71.3506 130.713 71.4695 130.851C71.5883 130.989 71.6823 131.138 71.7486 131.307C71.8149 131.473 71.8508 131.641 71.8508 131.816C71.8508 132.061 71.7956 132.291 71.6905 132.509C71.5828 132.727 71.4308 132.902 71.2373 133.037C71.0439 133.172 70.8145 133.242 70.5547 133.242H69.1011V134.9H68.6561L68.6534 134.894ZM69.0955 132.846H70.5326C70.7095 132.846 70.8642 132.797 70.9941 132.7C71.124 132.603 71.2263 132.476 71.2981 132.321C71.37 132.164 71.4059 131.998 71.4059 131.816C71.4059 131.633 71.3644 131.459 71.2788 131.304C71.1931 131.147 71.0826 131.025 70.9444 130.934C70.8062 130.843 70.657 130.799 70.4911 130.799H69.0928V132.849L69.0955 132.846Z" fill="white"/>
<path d="M73.6692 130.403H74.0423L75.9077 134.894H75.4407L74.8797 133.49H72.8263L72.2653 134.894H71.79L73.6692 130.403ZM74.7387 133.142L73.8516 130.92L72.9645 133.142H74.7387Z" fill="white"/>
<path d="M76.5545 134.894V130.403H78.4531C78.6465 130.403 78.8234 130.442 78.9837 130.525C79.144 130.608 79.2849 130.713 79.4037 130.851C79.5226 130.989 79.6165 131.138 79.6829 131.307C79.7492 131.473 79.7824 131.641 79.7824 131.816C79.7824 132.031 79.7409 132.233 79.658 132.424C79.5751 132.614 79.459 132.774 79.3098 132.904C79.1605 133.034 78.9837 133.123 78.7819 133.164L79.8819 134.897H79.3816L78.3259 133.239H76.9967V134.897H76.5545V134.894ZM76.9967 132.846H78.4641C78.641 132.846 78.7958 132.797 78.9256 132.7C79.0555 132.603 79.1578 132.476 79.2296 132.316C79.3015 132.158 79.3374 131.99 79.3374 131.813C79.3374 131.636 79.296 131.465 79.2131 131.31C79.1301 131.155 79.0196 131.031 78.8842 130.937C78.746 130.843 78.594 130.793 78.4254 130.793H76.9967V132.844V132.846Z" fill="white"/>
<path d="M83.7012 134.502V134.894H80.6833V130.403H83.6431V130.796H81.1255V132.415H83.3226V132.788H81.1255V134.502H83.7012Z" fill="white"/>
<path d="M85.9977 133.369V132.971H87.8443V133.369H85.9977Z" fill="white"/>
<path d="M90.1348 132.611C90.1348 132.338 90.1818 132.067 90.2785 131.804C90.3724 131.542 90.5106 131.301 90.693 131.083C90.8754 130.865 91.0993 130.693 91.3646 130.564C91.6299 130.434 91.9311 130.37 92.2683 130.37C92.669 130.37 93.0117 130.461 93.2963 130.646C93.581 130.829 93.791 131.064 93.9264 131.351L93.5782 131.567C93.4815 131.368 93.3599 131.213 93.2107 131.094C93.0614 130.978 92.9039 130.895 92.7381 130.843C92.5723 130.793 92.4064 130.768 92.2406 130.768C91.9698 130.768 91.7321 130.823 91.5276 130.928C91.3204 131.036 91.1462 131.18 91.0053 131.359C90.8644 131.539 90.7566 131.738 90.6847 131.962C90.6129 132.183 90.577 132.407 90.577 132.636C90.577 132.885 90.6184 133.123 90.7041 133.349C90.787 133.579 90.9058 133.778 91.0578 133.955C91.2098 134.129 91.3894 134.27 91.594 134.372C91.7985 134.474 92.0195 134.527 92.26 134.527C92.4286 134.527 92.6027 134.496 92.7795 134.438C92.9564 134.38 93.1222 134.289 93.277 134.167C93.4317 134.046 93.5561 133.888 93.6473 133.692L94.0149 133.883C93.9209 134.106 93.7772 134.297 93.5837 134.452C93.3903 134.607 93.1747 134.726 92.9343 134.806C92.6966 134.886 92.4617 134.927 92.2351 134.927C91.9284 134.927 91.6437 134.861 91.3867 134.728C91.1297 134.596 90.9058 134.419 90.7206 134.198C90.5355 133.977 90.389 133.728 90.2868 133.452C90.1845 133.175 90.1348 132.896 90.1348 132.614V132.611Z" fill="white"/>
<path d="M96.5298 134.923C96.2148 134.923 95.9274 134.86 95.6703 134.733C95.4133 134.605 95.1922 134.434 95.0071 134.218C94.8219 134 94.6782 133.757 94.5759 133.486C94.4737 133.213 94.424 132.933 94.424 132.646C94.424 132.359 94.4765 132.063 94.5815 131.789C94.6865 131.516 94.8357 131.275 95.0264 131.062C95.2171 130.85 95.4437 130.681 95.7007 130.557C95.9577 130.432 96.2369 130.372 96.5353 130.372C96.8504 130.372 97.1378 130.435 97.3948 130.568C97.6518 130.7 97.8729 130.875 98.0553 131.093C98.2377 131.314 98.3814 131.557 98.4809 131.828C98.5832 132.096 98.6329 132.375 98.6329 132.657C98.6329 132.956 98.5804 133.24 98.4754 133.514C98.3704 133.785 98.2211 134.028 98.0304 134.241C97.8425 134.453 97.6187 134.619 97.3617 134.744C97.1046 134.865 96.8255 134.926 96.527 134.926L96.5298 134.923ZM94.8661 132.646C94.8661 132.892 94.9048 133.127 94.9877 133.351C95.0679 133.577 95.1812 133.776 95.3304 133.953C95.4796 134.127 95.6538 134.268 95.8583 134.37C96.0628 134.473 96.2866 134.525 96.5326 134.525C96.7896 134.525 97.0217 134.47 97.2262 134.365C97.4307 134.257 97.6048 134.113 97.7513 133.934C97.8978 133.754 98.0083 133.555 98.083 133.331C98.1576 133.108 98.1963 132.878 98.1963 132.646C98.1963 132.403 98.1576 132.168 98.0747 131.944C97.9918 131.72 97.8812 131.518 97.7292 131.342C97.58 131.165 97.4031 131.027 97.2014 130.924C96.9996 130.822 96.7758 130.772 96.5298 130.772C96.2839 130.772 96.049 130.825 95.8444 130.93C95.6399 131.035 95.4658 131.179 95.3194 131.355C95.1729 131.535 95.0623 131.737 94.985 131.958C94.9076 132.182 94.8689 132.411 94.8689 132.64L94.8661 132.646Z" fill="white"/>
<path d="M106.979 131.242C106.915 131.17 106.841 131.107 106.758 131.049C106.675 130.994 106.578 130.944 106.473 130.9C106.368 130.858 106.255 130.822 106.136 130.797C106.017 130.772 105.887 130.761 105.755 130.761C105.362 130.761 105.075 130.836 104.89 130.985C104.707 131.134 104.616 131.339 104.616 131.596C104.616 131.773 104.66 131.911 104.746 132.013C104.832 132.116 104.967 132.196 105.155 132.259C105.34 132.323 105.575 132.389 105.863 132.455C106.183 132.522 106.459 132.602 106.692 132.696C106.924 132.79 107.103 132.914 107.228 133.072C107.355 133.229 107.418 133.442 107.418 133.713C107.418 133.917 107.38 134.097 107.297 134.249C107.217 134.401 107.103 134.528 106.962 134.628C106.819 134.73 106.647 134.805 106.451 134.852C106.252 134.899 106.037 134.923 105.799 134.923C105.561 134.923 105.346 134.899 105.133 134.852C104.92 134.805 104.718 134.73 104.53 134.636C104.343 134.542 104.163 134.42 104 134.271L104.221 133.912C104.301 133.995 104.398 134.075 104.508 134.15C104.619 134.224 104.743 134.291 104.881 134.349C105.02 134.407 105.166 134.451 105.324 134.484C105.481 134.514 105.647 134.531 105.816 134.531C106.175 134.531 106.454 134.467 106.653 134.335C106.852 134.205 106.954 134.011 106.954 133.754C106.954 133.569 106.904 133.42 106.802 133.309C106.7 133.199 106.548 133.105 106.346 133.036C106.142 132.964 105.893 132.895 105.6 132.826C105.288 132.754 105.025 132.674 104.81 132.585C104.597 132.497 104.434 132.381 104.326 132.234C104.218 132.088 104.166 131.897 104.166 131.657C104.166 131.378 104.235 131.146 104.37 130.952C104.508 130.759 104.696 130.615 104.937 130.515C105.177 130.416 105.454 130.366 105.766 130.366C105.965 130.366 106.147 130.386 106.319 130.427C106.49 130.466 106.647 130.524 106.794 130.601C106.94 130.679 107.076 130.772 107.203 130.886L106.987 131.24L106.979 131.242Z" fill="white"/>
<path d="M110.022 134.925C109.668 134.925 109.369 134.861 109.123 134.734C108.88 134.607 108.684 134.438 108.54 134.225C108.397 134.013 108.292 133.772 108.228 133.501C108.162 133.23 108.129 132.954 108.129 132.667V130.403H108.565V132.667C108.565 132.899 108.59 133.128 108.64 133.349C108.687 133.573 108.767 133.775 108.878 133.952C108.988 134.129 109.135 134.27 109.32 134.372C109.505 134.474 109.737 134.527 110.016 134.527C110.295 134.527 110.541 134.471 110.729 134.366C110.917 134.259 111.064 134.115 111.171 133.941C111.279 133.764 111.356 133.565 111.403 133.344C111.45 133.123 111.473 132.899 111.473 132.669V130.406H111.915V132.669C111.915 132.968 111.882 133.255 111.812 133.532C111.746 133.805 111.636 134.046 111.486 134.253C111.337 134.46 111.141 134.623 110.9 134.748C110.66 134.869 110.367 134.93 110.022 134.93V134.925Z" fill="white"/>
<path d="M112.97 134.894V130.403H113.413V134.502H116.008V134.894H112.97Z" fill="white"/>
<path d="M119.139 130.796H117.539V134.894H117.096V130.796H115.496V130.403H119.139V130.796Z" fill="white"/>
<path d="M121.084 133.369V132.971H122.931V133.369H121.084Z" fill="white"/>
<path d="M129.063 130.403V134.894H128.626V132.794H125.962V134.894H125.52V130.403H125.962V132.401H128.626V130.403H129.063Z" fill="white"/>
<path d="M133.206 134.502V134.894H130.188V130.403H133.148V130.796H130.63V132.415H132.827V132.788H130.63V134.502H133.206Z" fill="white"/>
<path d="M135.433 130.403H135.806L137.671 134.894H137.202L136.641 133.49H134.587L134.026 134.894H133.554L135.433 130.403ZM136.502 133.142L135.615 130.92L134.728 133.142H136.502Z" fill="white"/>
<path d="M138.318 134.894V130.403H138.76V134.502H141.355V134.894H138.318Z" fill="white"/>
<path d="M108.093 54.9484L81.3355 30.3304L97.7237 0L114.595 30.3304L103.69 40.2406L103.372 40.1688L99.9484 36.7474L107.499 29.5953L98.0636 17.9357L88.4297 29.5953L109.187 48.8464L126.584 35.3573C128.01 35.5536 128.728 36.7005 130.124 36.858L129.889 37.3278C130.751 37.01 131.487 37.6318 132.266 38.0242C134.949 39.3701 137.677 41.2189 140.203 42.8577L108.09 54.954L108.093 54.9484Z" fill="white"/>
<path d="M160.714 59.9199C164.879 64.6457 168.947 69.4792 172.388 74.7715C172.595 75.0893 173.974 77.231 173.852 77.3554L114.178 59.9199H160.717H160.714Z" fill="white"/>
<path d="M81.5124 59.9199L22.4515 77.115C22.1005 76.9685 22.4211 76.6535 22.5261 76.4517C24.3915 72.8093 28.6944 67.401 31.4194 64.2228C32.6823 62.7498 34.147 61.4814 35.2193 59.9199H81.5124Z" fill="white"/>
<path d="M55.7252 42.9719C57.154 41.778 58.8951 40.6947 60.5007 39.7551C60.8102 39.5754 61.3187 39.3295 61.7637 39.078C62.8139 38.4893 68.6589 35.2836 69.3442 35.3527L86.3514 48.839L87.0479 48.6345L92.2047 43.7125L95.7726 46.7608L96.0185 47.4959L87.5426 55.0239L55.728 42.9664L55.7252 42.9719Z" fill="white"/>
<path d="M111.719 57.2205L143.284 44.9585C148.574 48.4987 153.499 52.6523 157.89 57.2205H111.719Z" fill="white"/>
<path d="M38.0437 57.2202C42.3991 52.5967 47.3929 48.5453 52.6438 44.9526L84.2123 57.2202H38.0409H38.0437Z" fill="white"/>
<path d="M102.27 27.0886H99.2353V24.0542H96.8614V27.0886H93.8242V29.4653H96.8614V32.4997H99.2353V29.4653H102.27V27.0886Z" fill="white"/>
<path d="M19.7017 117.698H10.6979V112.298H9.00385V124.884H10.6979V119.301H19.7017V124.884H21.3931V112.298H19.7017V117.698Z" fill="white"/>
<path d="M30.2558 119.158H35.5122V117.646H30.2558V113.81H39.1685V112.298H28.5618V124.884H39.2403V123.372H30.2558V119.158Z" fill="white"/>
<path d="M51.7706 112.298L45.3259 124.884H47.1664L48.8495 121.678H55.8524L57.5299 124.886H59.3898L52.9617 112.298H51.7734H51.7706ZM49.6039 120.166L52.3454 114.694L55.1007 120.166H49.6039Z" fill="white"/>
<path d="M67.6004 112.298H65.9063V124.884H75.9907V123.372H67.6004V112.298Z" fill="white"/>
<path d="M81.9877 113.81H87.1031V124.884H88.7944V113.81H93.9099V112.298H81.9877V113.81Z" fill="white"/>
<path d="M111.144 117.698H102.137V112.298H100.446V124.884H102.137V119.301H111.144V124.884H112.835V112.298H111.144V117.698Z" fill="white"/>
<path d="M129.743 112.298H121.692C121.082 112.298 120.645 112.401 120.388 112.605C120.131 112.81 120.001 113.21 120.001 113.81V123.394C120.001 123.994 120.139 124.4 120.416 124.616C120.642 124.795 121.071 124.886 121.692 124.886H129.779C130.331 124.886 130.751 124.77 131.039 124.536C131.326 124.301 131.47 123.914 131.47 123.375V120.926L129.779 120.459V123.378H121.692V113.816H129.779V116.698L131.47 116.355V114.609C131.47 113.672 131.409 113.092 131.29 112.862C131.086 112.489 130.569 112.304 129.74 112.304L129.743 112.298Z" fill="white"/>
<path d="M144.257 112.298L137.812 124.884H139.653L141.336 121.678H148.339L150.017 124.886H151.876L145.448 112.298H144.26H144.257ZM142.088 120.166L144.829 114.694L147.585 120.166H142.088Z" fill="white"/>
<path d="M165.824 119.77H166.499C167.795 119.77 168.687 119.555 169.179 119.126C169.586 118.767 169.79 118.236 169.79 117.532V115.525C169.79 114.39 169.652 113.602 169.378 113.16C169.019 112.585 168.298 112.3 167.22 112.3H158.393V124.886H160.084V119.77H162.84L167.9 124.886H170.227L165.167 119.768C165.382 119.77 165.601 119.77 165.824 119.77ZM160.084 118.256V113.809H166.524C167.308 113.809 167.789 113.947 167.969 114.221C168.091 114.412 168.151 114.926 168.151 115.763V116.874C168.151 117.352 168.066 117.687 167.9 117.877C167.684 118.129 167.275 118.253 166.676 118.253H160.084V118.256Z" fill="white"/>
<path d="M178.669 123.372V119.196H187.447V117.519H178.669V113.81H187.582V112.298H176.975V124.884H187.654V123.372H178.669Z" fill="white"/>
<path d="M38.5688 82.3306L29.518 105.802H25.8341L19.3756 89.5629L12.8259 105.802H9.05079L0 82.3306H5.6405L11.5988 98.0692L17.8307 82.3306H21.6528L28.0201 98.0692L33.7076 82.3306H38.5743H38.5688Z" fill="white"/>
<path d="M77.0492 100.25C77.0492 102.433 76.6319 103.903 75.7972 104.663C74.9626 105.42 73.4399 105.799 71.2262 105.799H53.9399C51.7263 105.799 50.2036 105.42 49.3689 104.663C48.5343 103.906 48.117 102.433 48.117 100.25V87.8769C48.117 85.6937 48.5343 84.2235 49.3689 83.4635C50.2008 82.7063 51.7263 82.3276 53.9399 82.3276H71.2262C73.4399 82.3276 74.9626 82.7063 75.7972 83.4635C76.6319 84.2207 77.0492 85.6937 77.0492 87.8769V100.25ZM71.5883 101.388V86.5145H53.5779V101.388H71.5883Z" fill="white"/>
<path d="M171.41 105.799H165.269L162.45 100.659H147.576L144.846 105.799H139.388L152.67 82.3276H157.945L171.41 105.799ZM160.173 96.4302L155.124 86.8793L149.892 96.4302H160.173Z" fill="white"/>
<path d="M186.692 105.799H181.234V82.3276H186.692V105.799Z" fill="white"/>
<path d="M118.064 105.799H109.286L95.2308 95.474V105.799H89.7285V82.3276H95.2308V92.108L108.239 82.3276H116.154L100.598 93.3792L118.064 105.796V105.799Z" fill="white"/>
</svg>
