<svg width="173" height="39" viewBox="0 0 173 39" fill="none" xmlns="http://www.w3.org/2000/svg">
<g clip-path="url(#clip0_48_387)">
<mask id="mask0_48_387" style="mask-type:luminance" maskUnits="userSpaceOnUse" x="0" y="0" width="173" height="39">
<path d="M172.15 0H0V38.84H172.15V0Z" fill="white"/>
</mask>
<g mask="url(#mask0_48_387)">
<path d="M1.91764 13.389C2.40924 13.389 2.89932 13.2036 3.27525 12.8314C4.02255 12.0882 4.02255 10.8742 3.27525 10.1296C2.91302 9.76792 2.43055 9.56885 1.91764 9.56885C1.40474 9.56885 0.923796 9.76792 0.560042 10.1296C-0.18725 10.8726 -0.18725 12.0868 0.560042 12.8314C0.935971 13.2036 1.42453 13.389 1.91764 13.389Z" fill="white"/>
<path d="M36.4195 13.389C36.9126 13.389 37.4011 13.2036 37.7771 12.8314C38.5244 12.0882 38.5244 10.8742 37.7771 10.1296C37.4164 9.76792 36.9324 9.56885 36.4195 9.56885C35.9065 9.56885 35.4256 9.76792 35.0619 10.1296C34.3145 10.8726 34.3145 12.0868 35.0619 12.8314C35.4378 13.2036 35.9263 13.389 36.4195 13.389Z" fill="white"/>
<path d="M11.5319 3.82165C12.0448 3.82317 12.5242 3.62562 12.8895 3.26396C13.2533 2.90382 13.4527 2.42365 13.4527 1.91308C13.4527 1.40251 13.2548 0.923839 12.8895 0.562183C12.5273 0.200527 12.0448 0.00146484 11.5319 0.00146484C11.019 0.00146484 10.5381 0.200527 10.1743 0.562183C9.42701 1.30525 9.42701 2.51937 10.1743 3.26396C10.5365 3.62562 11.019 3.82468 11.5319 3.82468V3.82165Z" fill="white"/>
<path d="M26.796 3.82165C27.3089 3.82317 27.7899 3.62562 28.1536 3.26396C28.5144 2.90382 28.7168 2.42365 28.7168 1.91308C28.7168 1.40251 28.5174 0.923839 28.1536 0.562183C27.7914 0.200527 27.3089 0.00146484 26.796 0.00146484C26.2832 0.00146484 25.8022 0.200527 25.4384 0.562183C24.6912 1.30525 24.6912 2.51937 25.4384 3.26396C25.7992 3.62562 26.2832 3.82468 26.796 3.82468V3.82165Z" fill="white"/>
<path d="M9.19106 12.5686L9.18801 12.5717C9.4087 12.6233 9.62939 12.6492 9.85159 12.6492C10.3782 12.6492 10.8926 12.5048 11.3523 12.2207C12.0037 11.821 12.4573 11.1904 12.6338 10.4488C12.8088 9.7088 12.684 8.94143 12.2838 8.29258C11.8804 7.64372 11.2503 7.1909 10.5076 7.01463C9.76485 6.83987 8.9932 6.96448 8.34484 7.36412C7.69343 7.76377 7.23988 8.39439 7.06333 9.13593C6.8883 9.87596 7.01311 10.6433 7.41338 11.2922C7.81671 11.9411 8.44681 12.3938 9.19258 12.5686H9.19106Z" fill="white"/>
<path d="M28.204 6.94913V6.95217H28.2024C26.6317 7.11021 25.4796 8.5082 25.6364 10.0734C25.7809 11.5443 27.0305 12.6444 28.4841 12.6444C28.5784 12.6444 28.6712 12.6414 28.7686 12.6292C29.5281 12.5533 30.2161 12.1871 30.7015 11.599C31.1855 11.0094 31.4108 10.2679 31.3362 9.50807C31.2632 8.74982 30.8934 8.06449 30.3028 7.58127C29.7123 7.09805 28.968 6.87467 28.204 6.94762V6.94913Z" fill="white"/>
<path d="M36.4301 19.133C36.4301 17.5618 35.1472 16.2808 33.5688 16.2808C31.9905 16.2808 30.7076 17.5602 30.7076 19.133C30.7076 20.7057 31.9921 21.9852 33.5688 21.9852C35.1456 21.9852 36.4301 20.7057 36.4301 19.133Z" fill="white"/>
<path d="M4.57659 16.2808C2.9983 16.2808 1.71527 17.5602 1.71527 19.133C1.71527 20.7057 2.9983 21.9852 4.57659 21.9852C6.15488 21.9852 7.43791 20.7057 7.43791 19.133C7.43791 17.5602 6.15488 16.2808 4.57659 16.2808Z" fill="white"/>
<path d="M19.1648 7.44761C20.743 7.44761 22.0261 6.16814 22.0261 4.59539C22.0261 3.02263 20.743 1.74316 19.1648 1.74316C17.5865 1.74316 16.3034 3.02263 16.3034 4.59539C16.3034 6.16814 17.588 7.44761 19.1648 7.44761Z" fill="white"/>
<path d="M36.4195 25.4512C35.9279 25.4512 35.4378 25.6365 35.0619 26.0088C34.3145 26.7519 34.3145 27.966 35.0619 28.7106C35.4241 29.0722 35.9065 29.2714 36.4195 29.2714C36.9324 29.2714 37.4133 29.0738 37.7771 28.7106C38.5244 27.966 38.5244 26.7534 37.7771 26.0088C37.4011 25.6365 36.9126 25.4512 36.4195 25.4512Z" fill="white"/>
<path d="M1.91764 25.4512C1.42453 25.4512 0.935971 25.6365 0.560042 26.0088C-0.18725 26.7519 -0.18725 27.966 0.560042 28.7106C0.920751 29.0722 1.40474 29.2714 1.91764 29.2714C2.43055 29.2714 2.9115 29.0738 3.27525 28.7106C4.02255 27.966 4.02255 26.7534 3.27525 26.0088C2.89932 25.6365 2.41077 25.4512 1.91764 25.4512Z" fill="white"/>
<path d="M26.8035 35.0187C26.2906 35.0171 25.8097 35.2146 25.4459 35.5763C25.0822 35.9365 24.8828 36.4167 24.8828 36.9288C24.8828 37.4408 25.0822 37.918 25.4459 38.2797C25.8081 38.6413 26.2906 38.8403 26.8035 38.8403C27.3164 38.8403 27.7974 38.6413 28.1612 38.2797C28.9084 37.5365 28.9084 36.3224 28.1612 35.5779C27.7988 35.2162 27.3164 35.0171 26.8035 35.0171V35.0187Z" fill="white"/>
<path d="M11.5399 35.0187C11.0269 35.0171 10.546 35.2146 10.1822 35.5763C9.82151 35.9365 9.61908 36.4167 9.61908 36.9288C9.61908 37.4408 9.81846 37.918 10.1822 38.2797C10.5444 38.6413 11.0269 38.8403 11.5399 38.8403C12.0527 38.8403 12.5337 38.6413 12.8975 38.2797C13.6447 37.5365 13.6447 36.3224 12.8975 35.5779C12.5367 35.2162 12.0527 35.0171 11.5399 35.0171V35.0187Z" fill="white"/>
<path d="M29.1445 26.272L29.1491 26.269C28.9284 26.2173 28.7077 26.1914 28.4855 26.1914C27.9589 26.1914 27.4445 26.3358 26.9849 26.62C26.3334 27.0211 25.8799 27.6502 25.7033 28.3917C25.5283 29.1318 25.6531 29.8992 26.0534 30.548C26.4567 31.1968 27.0868 31.6497 27.8295 31.826C28.5723 32.0007 29.3424 31.8761 29.9922 31.4764C30.6437 31.0769 31.0972 30.4462 31.2737 29.7047C31.4488 28.9646 31.324 28.1973 30.9237 27.5485C30.5204 26.8996 29.8903 26.4467 29.1445 26.272Z" fill="white"/>
<path d="M10.1332 31.8912V31.888H10.1347C11.7054 31.7301 12.8575 30.3321 12.7008 28.767C12.5546 27.296 11.3066 26.1958 9.85312 26.1958C9.75876 26.1958 9.66592 26.1988 9.56851 26.211C8.80904 26.287 8.1211 26.6533 7.63559 27.2412C7.1516 27.8309 6.92635 28.5724 7.00093 29.3322C7.07399 30.0904 7.44383 30.7758 8.03436 31.259C8.62488 31.7422 9.36913 31.9656 10.1332 31.8926V31.8912Z" fill="white"/>
<path d="M19.1709 31.3911C17.5926 31.3911 16.3096 32.6706 16.3096 34.2433C16.3096 35.8161 17.5926 37.0956 19.1709 37.0956C20.7492 37.0956 22.0323 35.8161 22.0323 34.2433C22.0323 32.6706 20.7476 31.3911 19.1709 31.3911Z" fill="white"/>
<path d="M24.8418 21.5736C24.5664 21.0631 24.2787 20.5342 24.2787 19.4189C24.2787 18.3035 24.5664 17.7747 24.8418 17.2656C25.0732 16.8401 25.2893 16.4375 25.2817 15.7841C25.2727 15.1352 25.0109 14.5259 24.5497 14.0685C24.0916 13.6156 23.4614 13.3497 22.8177 13.3452H22.7918C22.1526 13.3452 21.7508 13.5579 21.3277 13.7828C20.8162 14.0549 20.2836 14.3359 19.168 14.3405C18.0539 14.3375 17.5197 14.0533 17.0083 13.7828C16.5852 13.5595 16.1849 13.3452 15.5441 13.3452H15.5182C14.8744 13.3513 14.2428 13.6156 13.7862 14.0685C13.3251 14.5259 13.0632 15.1352 13.0542 15.7841C13.0466 16.4375 13.2611 16.8401 13.494 17.2656C13.7695 17.7762 14.0572 18.305 14.0572 19.4189C14.0572 20.5327 13.7695 21.0631 13.494 21.5736C13.2627 21.999 13.0466 22.4018 13.0542 23.0552C13.0632 23.7041 13.3251 24.3133 13.7862 24.7708C14.2443 25.2235 14.8744 25.488 15.5182 25.4941H15.5441C16.1849 25.4941 16.5852 25.2813 17.0083 25.0564C17.5197 24.7844 18.0523 24.5033 19.168 24.4988C20.282 24.5018 20.8162 24.786 21.3277 25.0564C21.7508 25.2798 22.151 25.4941 22.7918 25.4941H22.8177C23.4614 25.488 24.093 25.2235 24.5497 24.7708C25.0109 24.3133 25.2727 23.7041 25.2817 23.0552C25.2893 22.4018 25.0748 21.999 24.8418 21.5736Z" fill="white"/>
<path d="M65.1284 8.68882H65.1299C63.6444 7.84242 61.9596 7.41846 60.0724 7.41846C57.2369 7.41846 54.9813 8.52623 53.3072 10.7326V7.65855H51.5539C50.1278 7.65855 48.9711 8.81342 48.9711 10.2372V33.1036H50.7776C52.1961 33.1036 53.3452 31.9563 53.3452 30.5401V25.4572C54.0209 26.4282 54.925 27.1956 56.0574 27.7639C57.1897 28.3307 58.5291 28.6117 60.0648 28.6117C61.9535 28.6117 63.6444 28.1742 65.1268 27.2973C66.6123 26.419 67.7721 25.1822 68.6091 23.5744C69.4462 21.9683 69.8647 20.1144 69.8647 18.0129C69.8647 15.9113 69.4432 13.9769 68.6091 12.3692C67.7721 10.763 66.6092 9.53825 65.1268 8.68882H65.1284ZM63.7373 22.9849V22.9895C62.6171 24.284 61.1515 24.9315 59.3418 24.9315C57.5322 24.9315 56.0711 24.2826 54.9677 22.9909C53.8581 21.6978 53.3072 20.0111 53.3072 17.9369C53.3072 15.8627 53.8596 14.2793 54.9677 13.0226C56.0771 11.769 57.5322 11.1399 59.3418 11.1399C61.1515 11.1399 62.6156 11.772 63.7373 13.0394C64.859 14.3066 65.4191 15.9645 65.4191 18.0129C65.4191 20.0612 64.8574 21.6932 63.7373 22.9849Z" fill="white"/>
<path d="M156.515 8.72983H156.517C155.032 7.88343 153.346 7.45947 151.459 7.45947C148.623 7.45947 146.369 8.56724 144.694 10.7736V7.69956H142.941C141.515 7.69956 140.358 8.85443 140.358 10.2783V33.1446H142.164C143.584 33.1446 144.732 31.9974 144.732 30.5811V25.4982C145.407 26.4692 146.313 27.2365 147.444 27.8049C148.577 28.3717 149.916 28.6528 151.451 28.6528C153.341 28.6528 155.032 28.2151 156.514 27.3384C157.999 26.4601 159.159 25.2231 159.995 23.617C160.832 22.0108 161.252 20.1569 161.252 18.0554C161.252 15.9538 160.83 14.0194 159.995 12.4117C159.159 10.8056 157.996 9.58079 156.514 8.73135L156.515 8.72983ZM155.123 23.0259V23.0289C154.002 24.3235 152.537 24.9724 150.727 24.9724C148.918 24.9724 147.457 24.3235 146.353 23.032C145.244 21.7388 144.693 20.0521 144.693 17.9778C144.693 15.9036 145.244 14.3203 146.353 13.0636C147.463 11.81 148.918 11.1809 150.727 11.1809C152.537 11.1809 154.001 11.813 155.123 13.0803C156.244 14.3477 156.803 16.0055 156.803 18.0524C156.803 20.0992 156.243 21.7327 155.123 23.0244V23.0259Z" fill="white"/>
<path d="M78.4762 8.49288H78.4868C77.5402 9.04448 76.77 9.8073 76.1765 10.7768L76.1674 7.66016H74.3791C72.9514 7.66016 71.7963 8.8135 71.7963 10.2389V28.3703H76.1704V17.9749C76.1704 16.1682 76.5737 14.6806 77.385 13.5074C78.1961 12.3328 79.5035 11.7478 81.3132 11.7478H83.2568V7.66016H82.2842C80.6906 7.66016 79.4229 7.9352 78.4746 8.49137L78.4762 8.49288Z" fill="white"/>
<path d="M99.7946 8.75561C98.189 7.86516 96.3458 7.41992 94.2653 7.41992C92.1848 7.41992 90.3416 7.86364 88.736 8.75561C87.1303 9.64608 85.8867 10.8936 85.0071 12.4937C84.1274 14.0969 83.6906 15.9371 83.6906 18.0143C83.6906 20.0915 84.1289 21.9697 85.0071 23.5759C85.8867 25.1821 87.1257 26.4205 88.736 27.2988C90.3416 28.1772 92.1848 28.6132 94.2653 28.6132C96.3458 28.6132 98.189 28.1756 99.7946 27.2988C101.4 26.4205 102.644 25.1836 103.522 23.5759C104.402 21.9727 104.839 20.1159 104.839 18.0143C104.839 15.9128 104.4 14.0969 103.522 12.4937C102.642 10.8906 101.403 9.64 99.7946 8.75561ZM98.6988 22.9696C97.5771 24.2491 96.0993 24.8903 94.2607 24.8903C92.4222 24.8903 90.952 24.2491 89.844 22.9696C88.7344 21.6901 88.1835 20.0353 88.1835 18.0128C88.1835 15.9902 88.7344 14.337 89.844 13.056C90.952 11.7765 92.4207 11.1353 94.2607 11.1353C96.1008 11.1353 97.5771 11.7765 98.6988 13.056C99.8206 14.3355 100.381 15.9902 100.381 18.0128C100.381 20.0353 99.819 21.6886 98.6988 22.9696Z" fill="white"/>
<path d="M130.729 7.41846H130.727C129.053 7.41846 127.622 7.75125 126.434 8.41226C125.245 9.07326 124.286 9.99715 123.558 11.1855C122.965 9.91814 122.114 8.97298 121.006 8.35451C119.897 7.73605 118.615 7.42606 117.159 7.42606C114.593 7.45189 112.569 8.43352 111.081 10.377L111.072 7.66919H109.366C107.939 7.66919 106.783 8.82254 106.783 10.2479V28.3793H111.158V17.2971C111.158 15.4357 111.596 13.951 112.474 12.8494C113.353 11.7477 114.534 11.1915 116.02 11.1915C117.506 11.1915 118.538 11.658 119.281 12.5865C120.025 13.5164 120.394 14.8962 120.394 16.7334V28.3793H124.81V17.1741C124.81 15.3126 125.248 13.8508 126.126 12.7855C127.006 11.7218 128.199 11.1885 129.71 11.1885C131.142 11.1885 132.218 11.658 132.95 12.6047C133.682 13.5499 134.046 14.9236 134.046 16.7288V28.3748H138.42V16.6863C138.42 13.4512 137.704 11.0988 136.274 9.6279C134.843 8.15697 132.992 7.42302 130.729 7.42302V7.41846Z" fill="white"/>
<path d="M169.93 24.4771L169.926 24.474H169.924C169.143 24.474 168.589 24.3069 168.267 23.9711C167.944 23.6384 167.783 23.0639 167.783 22.26V11.5H168.262C170.382 11.5 172.104 9.78447 172.104 7.67228H164.053C166.452 7.63429 167.729 5.68165 167.729 3.28075V1.91162H163.375V7.6738H159.777V7.91389C159.777 9.89691 161.387 11.5 163.375 11.5V22.7053C163.375 24.6154 163.828 26.021 164.731 26.9388C165.634 27.8521 167.07 28.3079 169.039 28.3079H172.15V24.4802H169.93V24.4771Z" fill="white"/>
</g>
</g>
<defs>
<clipPath id="clip0_48_387">
<rect width="172.15" height="38.84" fill="white"/>
</clipPath>
</defs>
</svg>
