<svg width="164" height="69" viewBox="0 0 164 69" fill="none" xmlns="http://www.w3.org/2000/svg">
<g clip-path="url(#clip0_48_415)">
<path d="M63.7605 52.9147C61.6476 45.2135 55.5574 40.1208 48.7836 37.1397C43.812 34.966 38.5919 33.9723 34.0553 33.5996C33.9932 32.5438 33.931 31.5501 33.931 30.4943C33.931 29.6869 33.931 28.8175 33.931 28.0101C38.5297 27.5753 43.1906 26.0227 46.7328 22.731C51.083 18.6941 54.2524 11.0551 50.7101 4.59603C49.2808 2.11178 47.0436 0.55913 44.3714 0.186492C41.1398 -0.310357 38.1569 0.931767 35.7332 3.60233C33.6825 5.90026 32.1288 9.19189 31.0724 13.4772C30.2023 17.0173 29.643 20.9921 29.5188 25.1532C28.6487 25.0911 27.7166 25.029 26.7844 24.8427C25.6036 24.6563 24.2986 24.3458 22.9936 23.849C22.1857 18.5699 20.6942 14.1604 18.5813 10.8067C16.5926 7.70134 14.1069 5.58973 11.5589 4.90656C9.01099 4.2234 6.64949 4.90656 5.22016 6.76975C3.79083 8.57083 3.72868 11.1172 4.90943 13.7878C7.27093 19.0668 12.864 23.1037 18.7677 25.5258C19.2027 28.6932 19.0784 31.9228 18.5191 34.966C15.1633 35.8976 10.0674 37.5744 4.90943 41.7977C1.86434 44.4061 -2.23721 50.8031 1.49147 54.4052C2.54793 55.3989 3.97726 55.8958 5.59303 55.8958C6.33876 55.8958 7.14665 55.7716 7.95453 55.5852C10.316 54.9642 12.7397 53.5357 14.9147 51.4862C17.9598 48.5672 21.1292 43.5366 22.6207 37.0776C24.92 36.6428 27.3437 36.3944 29.8295 36.3944C30.2645 40.7418 31.0724 45.0272 32.191 48.9399C34.4282 56.641 37.9704 62.2306 42.6934 65.6464C46.9193 68.7517 50.7723 69.0002 51.8909 69.0002H51.953C57.0489 69.0002 61.2126 66.3917 63.1391 61.9822C64.1955 59.4979 64.6927 56.1442 63.7605 52.9147ZM43.7499 4.47182C45.3657 4.72025 46.36 5.83816 46.9193 6.76975C48.9701 10.434 48.2865 18.011 41.8856 22.2342C39.8969 23.5384 37.2247 24.5942 33.9932 25.029C34.1796 21.1784 34.6768 17.5762 35.4225 14.533C37.8462 4.72025 42.072 4.2234 43.7499 4.47182ZM10.9375 15.8994C8.57597 13.2288 8.01667 10.3719 8.70026 9.50242C9.13528 8.94347 10.0053 9.06768 10.4403 9.19189C11.9318 9.56453 13.5476 11.0551 14.9147 13.1667C16.2819 15.3404 17.4005 18.2594 18.1463 21.6752C15.5983 20.2468 13.0504 18.3215 10.9375 15.8994ZM11.9318 48.2567C8.51383 51.4862 5.2823 51.8589 4.47442 51.1136C3.10724 49.9957 4.90943 46.5798 7.20879 44.4682C10.2539 41.6113 13.6718 39.686 17.7734 38.3197C17.7113 38.5681 17.587 38.8166 17.5248 39.065C16.2198 42.7914 14.2933 46.0209 11.9318 48.2567ZM23.18 33.9723C23.4286 31.7986 23.5529 29.5006 23.3664 27.0785C24.2986 27.3269 25.1686 27.5132 26.1008 27.6995C27.2194 27.8859 28.338 28.0101 29.5188 28.0722C29.5188 29.8733 29.5809 31.6122 29.7052 33.4133C27.468 33.4133 25.2929 33.5996 23.18 33.9723ZM59.0997 60.1811C57.8568 62.9759 55.3088 64.5906 51.953 64.5906C50.8965 64.5906 41.3263 64.0938 36.5411 47.6977C35.5468 44.2819 34.8011 40.5555 34.366 36.5807C38.654 37.0155 43.6256 38.1334 47.9136 40.3692C53.5688 43.2882 58.1675 47.9462 59.659 54.3431C60.0318 56.3926 59.8454 58.4421 59.0997 60.1811Z" fill="white"/>
<path d="M79.7317 7.08008V28.0099H76.5002V18.2592H65.3141V28.0099H62.0826V7.08008H65.3141V15.1539H76.5002V7.08008H79.7317ZM83.7711 13.8497H86.8783V28.0099H83.7711V13.8497ZM85.3247 11.0549C85.884 11.0549 86.319 10.8686 86.754 10.4959C87.1269 10.1233 87.3133 9.62643 87.3133 9.06748C87.3133 8.50852 87.1269 8.07378 86.754 7.63903C86.3812 7.2664 85.884 7.08008 85.3247 7.08008C84.7654 7.08008 84.3304 7.2664 83.8954 7.63903C83.5225 8.01167 83.3361 8.50852 83.3361 9.06748C83.3361 9.62643 83.5225 10.0612 83.8954 10.4959C84.3304 10.8686 84.7654 11.0549 85.3247 11.0549ZM97.878 16.5202C96.3865 16.5202 95.0814 17.1413 94.025 18.3834V28.0099H90.9177V13.8497H93.9007V14.9676C95.0193 14.036 96.3243 13.5391 97.9401 13.5391C100.053 13.5391 101.793 14.4086 103.098 16.0234C104.03 17.2034 104.465 18.8803 104.465 21.054V27.9478H101.358V20.9298C101.358 19.5013 101.109 18.4455 100.55 17.8245C99.9287 16.955 99.0587 16.5202 97.878 16.5202ZM110.866 27.3267C111.923 27.9478 113.103 28.2583 114.408 28.2583C115.962 28.2583 117.329 27.8235 118.448 26.892V27.3267C118.448 28.8794 118.199 30.0594 117.702 30.8046C117.019 31.7983 115.962 32.3573 114.471 32.3573C112.731 32.3573 111.239 31.5499 109.996 29.9352L109.872 29.8109L107.573 31.9226L107.635 32.0468C108.194 32.9163 109.064 33.6615 110.245 34.3447C111.426 35.0279 112.855 35.3384 114.533 35.3384C115.9 35.3384 117.143 35.0279 118.199 34.4068C119.256 33.7857 120.064 32.9163 120.685 31.7983C121.244 30.6804 121.555 29.1278 121.555 27.2025V13.8497H118.572V14.9676C117.391 14.036 115.962 13.5391 114.408 13.5391C113.103 13.5391 111.985 13.8497 110.928 14.4707C109.81 15.0918 108.94 16.0234 108.256 17.1413C107.573 18.2592 107.262 19.5634 107.262 20.9298C107.262 22.2961 107.573 23.6003 108.256 24.7182C108.878 25.8361 109.748 26.7056 110.866 27.3267ZM111.55 17.7623C112.358 16.8929 113.414 16.4581 114.657 16.4581C116.211 16.4581 117.516 17.0792 118.448 18.3213V23.414C117.516 24.6561 116.273 25.2772 114.781 25.2772C113.538 25.2772 112.42 24.8424 111.612 23.973C110.742 23.1035 110.369 22.0477 110.369 20.8677C110.307 19.6876 110.742 18.6318 111.55 17.7623ZM135.103 27.513C134.108 28.0099 132.865 28.2583 131.56 28.2583C129.51 28.2583 127.77 27.5751 126.34 26.1467C124.973 24.7803 124.227 22.9793 124.227 20.8677C124.227 18.756 124.911 16.955 126.154 15.5886C127.459 14.2223 129.137 13.477 131.125 13.477C133.114 13.477 134.73 14.1602 136.035 15.5886C137.34 16.955 137.961 18.756 137.961 20.8677C137.961 21.1161 137.961 21.3024 137.899 21.4887V21.6129H127.272C127.397 22.6687 127.832 23.6003 128.64 24.3456C129.447 25.0909 130.442 25.5256 131.623 25.5256C133.114 25.5256 134.357 24.9046 135.476 23.6624L135.6 23.5382L137.651 25.4635L137.588 25.5877C136.905 26.3951 136.097 27.0162 135.103 27.513ZM131.25 16.2718C130.38 16.2718 129.572 16.5202 128.888 17.0792C128.267 17.576 127.77 18.1971 127.521 19.0045H134.668C134.481 18.2592 134.046 17.6381 133.425 17.1413C132.803 16.5823 132.058 16.2718 131.25 16.2718ZM94.1493 55.2124V34.3447H90.9177V42.4185H79.7317V34.3447H76.5002V55.2745H79.7317V45.5238H90.9177V55.2745H94.1493V55.2124ZM110.618 48.1323C110.618 48.3807 110.618 48.567 110.555 48.7533V48.8775H99.9287C100.053 49.9334 100.488 50.8649 101.296 51.6102C102.104 52.3555 103.098 52.7902 104.279 52.7902C105.77 52.7902 107.013 52.1692 108.132 50.9271L108.256 50.8028L110.307 52.7281L110.245 52.8523C109.685 53.5976 108.878 54.2808 107.821 54.7776C106.827 55.2745 105.584 55.5229 104.279 55.5229C102.228 55.5229 100.488 54.8397 99.0587 53.4113C97.6915 52.045 96.9458 50.2439 96.9458 48.1323C96.9458 46.0207 97.6294 44.2196 98.8723 42.8532C100.177 41.4869 101.855 40.7416 103.844 40.7416C105.832 40.7416 107.448 41.4248 108.753 42.8532C109.996 44.2817 110.618 46.0828 110.618 48.1323ZM101.544 44.3438C100.923 44.8406 100.426 45.4617 100.177 46.2691H107.324C107.138 45.5238 106.703 44.9028 106.081 44.4059C105.397 43.8469 104.652 43.5985 103.844 43.5985C103.036 43.5364 102.228 43.7848 101.544 44.3438ZM124.041 42.1701C122.86 41.2385 121.431 40.7416 119.877 40.7416C118.572 40.7416 117.454 41.0522 116.397 41.6732C115.278 42.2943 114.408 43.2259 113.725 44.3438C113.041 45.4617 112.731 46.7659 112.731 48.1323C112.731 49.4986 113.041 50.8028 113.725 51.9207C114.346 53.0387 115.278 53.9703 116.335 54.5913C117.391 55.2124 118.572 55.5229 119.877 55.5229C121.493 55.5229 122.86 55.0261 123.979 54.1566V55.2745H126.962V41.1143H123.979V42.1701H124.041ZM123.979 50.6786C123.047 51.9207 121.804 52.5418 120.312 52.5418C119.069 52.5418 117.951 52.1071 117.143 51.2376C116.273 50.3681 115.9 49.3123 115.9 48.1323C115.9 46.9523 116.335 45.8965 117.143 45.027C117.951 44.1575 119.007 43.7227 120.25 43.7227C121.804 43.7227 123.109 44.3438 124.041 45.5859L123.979 50.6786ZM130.939 34.0342H134.046V55.2124H130.939V34.0342ZM136.656 43.909H140.199V50.1197C140.199 51.7965 140.571 53.0387 141.379 53.9082C142.374 55.0261 143.741 55.585 145.419 55.585C146.289 55.585 147.034 55.4608 147.656 55.2745L147.78 55.2124L147.159 52.4176L147.034 52.4797C146.662 52.6039 146.164 52.666 145.543 52.666C144.735 52.666 144.114 52.4176 143.741 51.9829C143.492 51.6723 143.368 51.1134 143.368 50.306V43.909H147.78V41.1143H143.368V37.2637H140.261V41.1143H136.718V43.909H136.656ZM157.35 43.7227C155.859 43.7227 154.554 44.3438 153.498 45.5859V55.2124H150.39V34.0342H153.498V42.1701C154.616 41.3006 155.983 40.8037 157.413 40.8037C159.526 40.8037 161.266 41.6732 162.571 43.288C163.503 44.468 163.938 46.1449 163.938 48.3186V55.2124H160.831V48.1323C160.831 46.7038 160.582 45.648 160.023 45.027C159.463 44.1575 158.531 43.7227 157.35 43.7227Z" fill="white"/>
</g>
<defs>
<clipPath id="clip0_48_415">
<rect width="164" height="69" fill="white"/>
</clipPath>
</defs>
</svg>
