<svg width="162" height="73" viewBox="0 0 162 73" fill="none" xmlns="http://www.w3.org/2000/svg">
<g clip-path="url(#clip0_48_419)">
<path d="M145.484 29.0068C143.967 29.7858 142.276 30.162 140.572 30.0994C138.868 30.0367 137.209 29.5373 135.753 28.6491C134.298 27.7609 133.096 26.5137 132.262 25.0272C131.428 23.5408 130.99 21.8649 130.99 20.1606V9.94202C130.991 8.18112 130.549 6.44822 129.705 4.90252C128.862 3.35681 127.643 2.04786 126.16 1.09589C127.677 0.316907 129.368 -0.0593309 131.072 0.00329843C132.776 0.0659278 134.436 0.565321 135.891 1.45354C137.346 2.34175 138.548 3.58896 139.383 5.07544C140.217 6.56191 140.654 8.23773 140.654 9.94202V20.1641C140.65 21.5445 140.92 22.912 141.447 24.1877C141.975 25.4634 142.75 26.622 143.728 27.5967C144.26 28.1293 144.849 28.6022 145.484 29.0068Z" fill="white"/>
<path d="M127.291 19.8807H120.459C118.953 19.8833 117.465 19.5437 116.109 18.8877C114.753 18.2317 113.564 17.2764 112.631 16.0939C111.698 14.9114 111.047 13.5325 110.725 12.0615C110.403 10.5904 110.42 9.06546 110.774 7.60184C111.128 6.13821 111.81 4.7741 112.769 3.61246C113.728 2.45082 114.938 1.522 116.308 0.896108C117.678 0.270213 119.173 -0.0364064 120.679 -0.000607675C122.185 0.035191 123.663 0.412473 125.002 1.10276C124.369 1.50835 123.783 1.98236 123.253 2.51623C121.993 3.7785 121.076 5.34044 120.586 7.05506C120.097 8.76967 120.052 10.5806 120.456 12.3173C120.859 14.0541 121.699 15.6596 122.894 16.9827C124.09 18.3059 125.603 19.3032 127.291 19.8807Z" fill="white"/>
<path d="M161.111 20.1608C161.11 21.8644 160.671 23.5391 159.836 25.0245C159.002 26.5098 157.8 27.7561 156.345 28.644C154.89 29.5318 153.232 30.0314 151.529 30.095C149.826 30.1586 148.135 29.7839 146.618 29.007C147.252 28.6011 147.839 28.1271 148.37 27.5935C149.63 26.3317 150.549 24.7704 151.039 23.0563C151.529 21.3422 151.576 19.5317 151.174 17.7947C150.772 16.0578 149.935 14.4515 148.741 13.1269C147.547 11.8022 146.036 10.8027 144.35 10.2222H151.181C153.815 10.2294 156.339 11.2792 158.2 13.1419C160.061 15.0046 161.107 17.5284 161.111 20.1608Z" fill="white"/>
<path d="M62.6532 56.2759H63.7941V63.5822H73.5019V56.2759H74.6428V72.2542H73.5019V64.7396H63.7941V72.2713H62.6532V56.2759Z" fill="white"/>
<path d="M78.7691 67.249C78.8304 68.3685 79.3104 69.4242 80.114 70.2065C80.9175 70.9888 81.9859 71.4406 83.1072 71.4723C83.8237 71.4581 84.5269 71.2773 85.1613 70.9443C85.7957 70.6112 86.3438 70.1351 86.7622 69.5536L87.4453 70.2159C86.9502 70.908 86.3001 71.475 85.5469 71.8715C84.7938 72.2681 83.9583 72.4833 83.1072 72.5C80.2516 72.5 77.741 69.9906 77.741 66.7915C77.741 63.5924 80.255 61.083 82.9945 61.083C85.734 61.083 88.0192 63.3671 88.0192 66.7915V67.249H78.7691ZM78.7691 66.2248H86.991C86.8783 63.8348 85.1636 62.1277 82.9945 62.1277C80.8255 62.1277 78.8853 64.0533 78.7691 66.2213V66.2248Z" fill="white"/>
<path d="M98.1847 65.4224C98.1847 63.5276 96.8593 62.1141 95.1104 62.1141C94.4938 62.1348 93.889 62.2883 93.3372 62.564C92.7854 62.8398 92.2997 63.2313 91.9132 63.7119L91.23 63.0291C91.23 63.0291 92.6476 61.0898 95.1138 61.0898C97.4673 61.0898 99.2128 62.9847 99.2128 65.4258V72.2747H98.1881V70.4447C97.7392 71.0856 97.1405 71.6073 96.444 71.9643C95.7475 72.3213 94.9743 72.5028 94.1916 72.4932C92.0225 72.4932 90.5366 71.008 90.5366 69.4204C90.5366 67.7133 91.7936 66.4296 93.8466 66.1121L98.1847 65.4224ZM98.1847 67.4709V66.4467L94.0857 67.1295C92.3777 67.4026 91.5716 68.2698 91.5716 69.4136C91.5716 70.4378 92.5964 71.4621 94.1984 71.4621C94.7249 71.4733 95.2483 71.3778 95.737 71.1816C96.2257 70.9853 96.6696 70.6922 97.042 70.32C97.4144 69.9478 97.7076 69.5041 97.904 69.0156C98.1004 68.5272 98.1958 68.0041 98.1847 67.4778V67.4709Z" fill="white"/>
<path d="M104.077 72.2713H103.052V56.2759H104.077V72.2542V72.2713Z" fill="white"/>
<path d="M109.054 57.6621H109.966V61.3153H112.48V62.3395H109.966V69.5298C109.966 70.7862 110.649 71.469 111.674 71.469C112.187 71.4591 112.693 71.3428 113.16 71.1276V72.1519C112.693 72.3671 112.187 72.4833 111.674 72.4933C109.966 72.4933 108.941 71.469 108.941 69.5264V62.3395H106.772V61.3153H108.258C108.372 61.3142 108.485 61.289 108.589 61.2413C108.694 61.1935 108.786 61.1244 108.862 61.0383C108.937 60.9522 108.994 60.8512 109.027 60.7419C109.061 60.6325 109.071 60.5173 109.057 60.4037V57.6724L109.054 57.6621Z" fill="white"/>
<path d="M117.105 63.2545C117.473 62.5846 118.018 62.0284 118.681 61.6462C119.343 61.264 120.098 61.0704 120.862 61.0865C123.376 61.0865 125.303 63.0257 125.303 65.7673V72.2747H124.278V65.7639C124.278 63.5959 122.792 62.1107 120.862 62.1107C118.813 62.1107 117.105 63.8178 117.105 66.1053V72.2679H116.08V56.2759H117.105V63.2374V63.2545Z" fill="white"/>
<path d="M0.966678 30.6458C0.966678 26.3269 4.69677 22.5986 10.5891 22.5986C16.6761 22.5986 19.6205 26.3269 19.6205 26.3269L16.1022 30.0586C16.1022 30.0586 14.1381 27.7028 10.9956 27.7028C8.63864 27.7028 7.26547 29.0685 7.26547 30.6458C7.26547 35.7466 20.8127 32.8036 20.8127 42.6159C20.8127 47.5221 17.0826 51.2504 10.4046 51.2504C3.53197 51.2504 -0.00341797 46.7368 -0.00341797 46.7368L3.53197 43.2032C4.3479 44.1199 5.34703 44.8554 6.4649 45.3623C7.58277 45.8692 8.79455 46.1362 10.022 46.1462C12.9665 46.1462 14.5378 44.5757 14.5378 42.6125C14.5309 37.5152 0.966678 40.4616 0.966678 30.6458Z" fill="white"/>
<path d="M29.1781 50.4715L21.7179 31.4341H27.2174L31.7331 44.1894L35.8082 32.7178C35.9402 32.3462 36.1841 32.0245 36.5065 31.7971C36.8288 31.5696 37.2138 31.4476 37.6083 31.4477H41.7552L34.1003 51.8372C32.3343 56.5487 29.9774 58.9011 26.6401 58.9011C25.5008 58.9112 24.3694 58.7109 23.3028 58.3105V53.5989C23.9225 53.8669 24.5919 54.0007 25.2669 53.9915C25.9779 54.0198 26.6803 53.8276 27.2777 53.4413C27.8751 53.055 28.3385 52.4935 28.6042 51.8338L29.1781 50.4715Z" fill="white"/>
<path d="M49.7174 33.7865C49.7174 33.7865 51.6815 31.0552 55.2169 31.0552C59.5379 31.0552 62.6771 34.1962 62.6771 39.495V50.6833H59.2851C58.7787 50.6833 58.293 50.4822 57.9349 50.1243C57.5769 49.7664 57.3757 49.2809 57.3757 48.7747V40.0686C57.3757 37.7128 55.8044 36.1423 53.6456 36.1423C51.2887 36.1423 49.7174 37.7128 49.7174 40.6558V50.6662H44.416V31.4307H49.7174V33.7865Z" fill="white"/>
<path d="M71.1757 42.8137C71.5685 44.7769 73.3345 46.542 76.2824 46.542C77.6416 46.5419 78.9682 46.1261 80.0842 45.3505C80.484 45.0856 80.9695 44.9823 81.4425 45.0615C81.9156 45.1408 82.3409 45.3966 82.6324 45.7772L84.132 47.7063C83.0477 48.7813 81.7602 49.6299 80.3446 50.2026C78.9289 50.7753 77.4133 51.0606 75.8861 51.0419C69.4302 51.0419 64.4875 45.2378 65.9256 38.7816C66.4228 36.5543 67.6745 34.567 69.469 33.156C71.2635 31.745 73.4906 30.9969 75.7734 31.0383C81.2388 31.0826 85.307 35.1899 85.307 40.6526C85.3219 41.3768 85.2566 42.1004 85.1123 42.8103H71.1757V42.8137ZM71.1757 39.0855H80.0125C79.8359 38.0764 79.3023 37.1644 78.5091 36.5158C77.716 35.8671 76.716 35.525 75.6915 35.5518C73.3345 35.5518 71.7632 37.1223 71.1757 39.0855Z" fill="white"/>
<path d="M98.2188 51.0588C92.7193 51.0588 88.0089 46.3472 88.0089 41.0484C88.0089 35.7496 92.7228 31.0381 98.2188 31.0381C103.715 31.0381 108.429 35.7462 108.429 41.0484C108.429 46.3507 103.715 51.0588 98.2188 51.0588ZM98.2188 46.1526C100.77 46.1526 102.933 43.9949 102.933 41.0484C102.933 38.102 100.774 35.9443 98.2188 35.9443C95.6638 35.9443 93.505 38.102 93.505 41.0484C93.505 43.9949 95.6672 46.1526 98.2188 46.1526Z" fill="white"/>
<path d="M122.184 37.1221C122.184 37.1221 121.006 35.5516 119.042 35.5516C117.47 35.5516 116.685 36.3369 116.685 37.1221C116.685 39.8535 125.522 38.4878 125.522 44.9747C125.522 48.3104 122.789 51.0588 117.863 51.0588C112.364 51.0588 110.007 47.5251 110.007 47.5251L112.951 44.5821C112.951 44.5821 114.523 46.7399 117.074 46.7399C118.84 46.7399 119.626 45.9546 119.626 44.9747C119.626 42.0317 110.789 43.4827 110.789 37.1221C110.789 34.1791 113.932 31.0381 118.249 31.0381C122.765 31.0381 124.924 33.9811 124.924 33.9811L122.184 37.1221Z" fill="white"/>
<path d="M129.549 46.5625C129.856 46.5706 130.154 46.669 130.405 46.8454C130.656 47.0218 130.85 47.2684 130.962 47.5543C131.074 47.8402 131.099 48.1527 131.033 48.4528C130.968 48.7528 130.816 49.0269 130.596 49.2409C130.376 49.4549 130.097 49.5992 129.796 49.6558C129.494 49.7124 129.182 49.6787 128.899 49.5589C128.616 49.4392 128.375 49.2388 128.206 48.9827C128.036 48.7266 127.946 48.4263 127.947 48.1194C127.945 47.9107 127.986 47.7039 128.067 47.5114C128.147 47.3189 128.266 47.1447 128.415 46.9993C128.565 46.8538 128.743 46.7401 128.937 46.6651C129.132 46.59 129.34 46.5551 129.549 46.5625ZM129.549 49.3485C129.793 49.3587 130.035 49.2956 130.243 49.1675C130.451 49.0393 130.616 48.8518 130.717 48.6292C130.818 48.4065 130.85 48.1588 130.809 47.9179C130.768 47.6769 130.656 47.4538 130.487 47.2771C130.318 47.1004 130.1 46.9782 129.861 46.9262C129.622 46.8742 129.373 46.8948 129.146 46.9854C128.919 47.0759 128.724 47.2323 128.586 47.4343C128.449 47.6364 128.375 47.8749 128.374 48.1194C128.368 48.2778 128.394 48.4358 128.45 48.584C128.506 48.7322 128.592 48.8676 128.701 48.9822C128.811 49.0969 128.942 49.1883 129.088 49.2512C129.234 49.3141 129.39 49.3472 129.549 49.3485ZM128.927 47.2419H129.586C130.024 47.2419 130.27 47.3785 130.27 47.7609C130.274 47.8225 130.265 47.8845 130.244 47.9425C130.223 48.0006 130.189 48.0535 130.146 48.0977C130.103 48.1419 130.051 48.1764 129.993 48.199C129.935 48.2216 129.874 48.2317 129.812 48.2286L130.28 48.9934H129.914L129.487 48.2457H129.269V48.9934H128.927V47.2453V47.2419ZM129.269 47.9725H129.576C129.771 47.9725 129.918 47.9418 129.918 47.7301C129.918 47.5185 129.716 47.5116 129.559 47.5116H129.269V47.9691V47.9725Z" fill="white"/>
</g>
<defs>
<clipPath id="clip0_48_419">
<rect width="161.111" height="72.5" fill="white"/>
</clipPath>
</defs>
</svg>
