<svg width="190" height="39" viewBox="0 0 190 39" fill="none" xmlns="http://www.w3.org/2000/svg">
<g clip-path="url(#clip0_48_436)">
<path d="M52.3014 14.8367H50.2207V3.09888H52.3014C53.9565 3.00497 55.5643 3.52144 56.8411 4.55437C58.0233 5.72815 58.5908 7.32449 58.4962 8.96778C58.5908 10.6111 58.0233 12.2074 56.8411 13.3342C55.5643 14.4141 53.9565 14.9306 52.3014 14.8367ZM59.3001 2.34766C57.314 0.704365 54.8077 -0.0938065 52.2541 9.59928e-05H46.7213V17.9355H52.2068C54.7604 18.0294 57.2667 17.2312 59.2528 15.5879C61.0971 13.8977 62.0902 11.4562 61.9483 8.96778C62.1375 6.47937 61.1444 4.0379 59.3001 2.34766Z" fill="white"/>
<path d="M78.2629 14.8835H69.1835V10.1884H77.459V7.13658H69.1835V3.09878H78.1683V0H65.7314V17.9354H78.2629V14.8835Z" fill="white"/>
<path d="M85.6873 10.7049H94.1992V7.65305H85.6873V3.09878H94.9559V0H82.2352V17.9354H85.6873V10.7049Z" fill="white"/>
<path d="M98.6917 17.9354H102.144V0H98.6917V17.9354Z" fill="white"/>
<path d="M110.041 5.54024L110.183 5.775L118.317 17.9354H121.627V0H118.317V12.3951L118.175 12.1604L110.088 0H106.731V17.9354H110.041V5.54024Z" fill="white"/>
<path d="M126.261 17.9354H129.713V0H126.261V17.9354Z" fill="white"/>
<path d="M138.462 17.9354H141.914V3.14573H147.446V0H132.976V3.09878H138.509V17.9354H138.462Z" fill="white"/>
<path d="M150.662 17.9354H154.114V0H150.662V17.9354Z" fill="white"/>
<path d="M173.881 0H170.24L165.7 12.3012L165.369 13.3811C165.274 13.0524 165.132 12.6768 165.038 12.2543L160.451 0H156.81L163.666 17.9354H167.024L173.881 0Z" fill="white"/>
<path d="M188.682 14.8835H179.603V10.1884H187.878V7.13658H179.603V3.09878H188.588V0H176.151V17.9354H188.682V14.8835Z" fill="white"/>
<path d="M55.517 29.2978H49.3695V23.335H46.3903V38.2185H49.3695V31.974H55.517V38.2185H58.4962V23.335H55.517V29.2978Z" fill="white"/>
<path d="M65.2112 31.8331H72.0208V29.2039H65.2112V25.9642H72.6355V23.335H62.2793V38.2185H72.7301V35.5892H65.2585V31.8331H65.2112Z" fill="white"/>
<path d="M82.046 27.185L83.843 31.6923H80.249L81.8568 27.6545C81.9041 27.5136 81.9987 27.3258 82.046 27.185ZM80.6746 23.335L74.4798 38.2185H77.6481L79.2087 34.2746H84.836L86.3966 38.2185H89.5649L83.3701 23.335H80.6746Z" fill="white"/>
<path d="M94.4357 23.335H91.4565V38.2185H101.813V35.5892H94.4357V23.335Z" fill="white"/>
<path d="M101.718 26.0112H106.305V38.2185H109.237V26.0112H113.777V23.335H101.718V26.0112Z" fill="white"/>
<path d="M125.552 29.2978H119.404V23.335H116.425V38.2185H119.404V31.974H125.552V38.2185H128.531V23.335H125.552V29.2978Z" fill="white"/>
<path d="M143.616 33.1007C142.859 34.791 141.157 35.8709 139.265 35.8709C137.989 35.9178 136.759 35.4013 135.908 34.4154C135.009 33.4294 134.537 32.1617 134.584 30.8001C134.537 29.4385 135.057 28.1709 135.955 27.1849C136.806 26.2459 138.036 25.7294 139.265 25.7294C141.11 25.7294 142.765 26.8093 143.474 28.4995L143.663 28.8282L146.028 27.1849L145.886 26.9501C145.318 25.7763 144.42 24.7904 143.332 24.133C142.103 23.4288 140.731 23.0532 139.313 23.1001C137.279 23.0532 135.246 23.8513 133.827 25.2599C132.314 26.7154 131.51 28.7343 131.557 30.8001C131.51 32.866 132.267 34.8379 133.733 36.3404C135.199 37.7959 137.137 38.594 139.218 38.5001C140.59 38.5471 141.961 38.2184 143.143 37.5611C144.278 36.8099 145.224 35.8239 145.933 34.6501L146.122 34.3684L143.805 32.7721L143.616 33.1007Z" fill="white"/>
<path d="M154.682 27.185L156.479 31.6923H152.885L154.492 27.6545C154.54 27.5136 154.634 27.3258 154.682 27.185ZM153.31 23.335L147.115 38.2185H150.284L151.844 34.2746H157.472L159.032 38.2185H162.2L156.006 23.335H153.31Z" fill="white"/>
<path d="M167.071 25.917H170.381C172.651 25.917 172.888 26.9968 172.888 27.795C172.888 28.5932 172.604 29.6731 170.381 29.6731H167.071V25.917ZM174.827 30.4712C175.489 29.72 175.867 28.734 175.82 27.7011C175.867 26.4804 175.299 25.3066 174.354 24.5084C173.219 23.6633 171.847 23.2408 170.476 23.3347H164.092V38.2182H167.071V32.2554H169.436L172.888 38.2182H176.34L172.557 31.9267C173.408 31.645 174.212 31.1755 174.827 30.4712Z" fill="white"/>
<path d="M181.873 35.5892V31.8331H188.682V29.2039H181.873V25.9642H189.297V23.335H178.941V38.2185H189.392V35.5892H181.873Z" fill="white"/>
<path d="M28.326 28.4525H23.5025V14.6019H9.59961V9.85986H28.326V28.4525Z" fill="white"/>
<path d="M0 0.375488V37.9834H3.40479L27.6167 13.9444L24.2119 10.5639L4.82346 29.8139V5.11756H33.1021V33.1944H14.9905L10.1671 37.9834H37.8783V0.375488H0Z" fill="white"/>
</g>
<defs>
<clipPath id="clip0_48_436">
<rect width="189.344" height="38.5" fill="white"/>
</clipPath>
</defs>
</svg>
