<svg width="188" height="65" viewBox="0 0 188 65" fill="none" xmlns="http://www.w3.org/2000/svg">
<g clip-path="url(#clip0_48_462)">
<path d="M3.25523 4.91812V19.9922C3.25523 25.5583 6.54789 29.9073 12.8546 29.9073C18.2634 29.9073 22.3293 25.9238 22.3293 19.8717V5.32104C22.3293 3.73429 23.3853 2.43416 25.1771 2.3137L25.7467 2.27216V0.851562H16.272V2.27216L16.8832 2.3137C18.6334 2.43416 19.731 3.69691 19.731 5.32104V19.4231C19.731 24.0131 17.3321 26.8169 13.5905 26.8169C9.84885 26.8169 7.5706 23.8511 7.5706 19.3816V4.91812C7.5706 3.33137 8.42287 2.43831 10.2147 2.31785L10.7843 2.27631V0.851562H0V2.27216L0.611136 2.3137C2.3614 2.43416 3.25523 3.28983 3.25523 4.91397V4.91812Z" fill="white"/>
<path d="M16.0475 37.0725L16.6587 37.114C18.1636 37.1971 19.3028 37.8035 19.3028 39.5107V48.3708H8.64322V39.5107C8.64322 37.8035 9.78235 37.2344 11.2873 37.114L11.8569 37.0725V35.6519H1.08093V37.0725L1.69207 37.114C3.19704 37.1971 4.33617 37.8035 4.33617 39.5107V60.234C4.33617 61.9412 3.19704 62.5518 1.69207 62.6307L1.08093 62.6723V64.0928H11.8569V62.6723L11.2873 62.6307C9.78235 62.5103 8.64322 61.9412 8.64322 60.234V50.564H19.2986V60.234C19.2986 61.9412 18.1595 62.5518 16.6545 62.6307L16.0434 62.6723V64.0928H26.8193V62.6723L26.2498 62.6307C24.7448 62.5103 23.6057 61.9412 23.6057 60.234V39.5107C23.6057 37.8035 24.7448 37.2344 26.2498 37.114L26.8193 37.0725V35.6519H16.0434V37.0725H16.0475Z" fill="white"/>
<path d="M25.7009 9.18409V10.5258L26.5158 10.5673C27.7755 10.6504 28.5488 11.2568 28.5488 12.964V25.4794C28.5488 27.1866 27.6965 27.7972 26.3121 27.8761L25.7009 27.9177V29.3009H35.3378V27.9177L34.7682 27.8761C33.3838 27.793 32.5315 27.1866 32.5315 25.4794V18.8167C32.6147 13.9402 34.7266 11.0159 37.2086 11.0159C39.121 11.0159 40.3807 12.316 40.3807 14.8374V25.4835C40.3807 27.1907 39.5284 27.8014 38.144 27.8803L37.5329 27.9218V29.305H47.1697V27.9218L46.6001 27.8803C45.2157 27.7972 44.3634 27.1907 44.3634 25.4835V14.3888C44.3634 11.2194 42.4095 8.57764 38.5473 8.57764C35.8242 8.57764 33.4628 10.2018 32.5274 13.0886V8.66071L25.6926 9.18824L25.7009 9.18409Z" fill="white"/>
<path d="M81.3392 29.7039C85.4467 29.7039 87.7665 26.9001 88.702 23.7308L86.9517 23.2448C86.1368 25.438 84.715 27.1452 81.8672 27.1452C78.5746 27.1452 76.3379 24.0174 76.3379 19.0578H88.9847V17.8781C88.9847 12.636 85.8957 8.41162 80.9318 8.41162C75.6062 8.41162 72.0641 13.4917 72.0641 19.0578C72.0641 24.6239 75.4815 29.7039 81.3351 29.7039H81.3392ZM80.8902 10.7294C83.1269 10.7294 84.5487 12.8022 84.715 17.0681H76.4169C76.8243 13.1262 78.4498 10.7294 80.8902 10.7294Z" fill="white"/>
<path d="M61.3298 24.7482C61.3298 27.9175 63.2422 29.7037 66.2937 29.7037C69.1415 29.7037 71.0123 27.6309 71.8646 24.6651L70.4012 24.258C69.8316 25.9653 68.8962 27.0203 67.595 27.0203C65.8863 27.0203 65.3167 25.7617 65.3167 24.2954V11.1321H70.8876V9.01781H65.3167V2.76221H63.2838C62.5105 7.47675 60.1117 9.18396 57.5881 9.71149V11.1321H61.3298V24.7482Z" fill="white"/>
<path d="M52.7905 5.36254C54.1749 5.36254 55.393 4.18286 55.393 2.64181C55.393 1.17968 54.1749 0 52.7905 0C51.4061 0 50.188 1.17968 50.188 2.64181C50.188 4.18702 51.3687 5.36254 52.7905 5.36254Z" fill="white"/>
<path d="M50.9197 12.9637V25.4791C50.9197 27.1863 50.0674 27.7969 48.683 27.8758L48.0719 27.9174V29.3006H57.7087V27.9174L57.1391 27.8758C55.7547 27.7928 54.9025 27.1863 54.9025 25.4791V8.65625L47.8682 9.18378V10.5255L48.8867 10.567C50.1464 10.6085 50.9197 11.2565 50.9197 12.9637Z" fill="white"/>
<path d="M99.3533 29.7039C102.039 29.7039 104.113 28.3207 105.007 25.9655V29.2969H111.801V27.9137L111.231 27.8721C109.847 27.789 108.994 27.1826 108.994 25.4754V0.324219L102.081 0.934825V2.2765L102.974 2.31804C104.234 2.35957 105.007 3.00756 105.007 4.71477V12.0296C104.113 9.75331 102.039 8.41164 99.3533 8.41164C94.0235 8.41164 91.0135 13.4917 91.0135 19.0578C91.0135 24.6239 94.0235 29.7039 99.3533 29.7039ZM100.043 10.7295C103.053 10.7295 105.007 13.9819 105.007 19.0578C105.007 24.1337 103.053 27.3903 100.043 27.3903C97.1956 27.3903 95.3248 24.1794 95.3248 19.0578C95.3248 13.9362 97.1956 10.7295 100.043 10.7295Z" fill="white"/>
<path d="M159.893 43.2908C157.536 43.2908 155.503 44.836 154.605 47.5982V43.4528L147.774 43.9803V45.322L148.589 45.3635C149.849 45.4466 150.622 46.053 150.622 47.7602V60.2756C150.622 61.9828 149.77 62.5934 148.386 62.6723L147.774 62.7139V64.0971H157.411V62.7139L156.842 62.6723C155.457 62.5893 154.605 61.9828 154.605 60.2756V53.4468C154.688 48.3667 156.883 45.1974 159.569 45.1974C160.18 45.1974 160.587 45.3594 160.912 45.7249C160.222 46.0904 159.773 46.78 159.773 47.6356C159.773 48.8153 160.75 49.7873 161.926 49.7873C163.103 49.7873 164.084 48.8112 164.084 47.4321C164.084 44.8734 162.171 43.2866 159.893 43.2866V43.2908Z" fill="white"/>
<path d="M172.989 43.2075C167.663 43.2075 164.121 48.2876 164.121 53.8537C164.121 59.4198 167.538 64.4998 173.392 64.4998C177.5 64.4998 179.819 61.696 180.755 58.5267L179.005 58.0407C178.19 60.2339 176.768 61.9411 173.92 61.9411C170.627 61.9411 168.391 58.8133 168.391 53.8537H181.038V52.674C181.038 47.4319 177.949 43.2075 172.985 43.2075H172.989ZM168.474 51.864C168.881 47.9221 170.507 45.5253 172.947 45.5253C175.184 45.5253 176.606 47.5981 176.768 51.864H168.47H168.474Z" fill="white"/>
<path d="M144.32 60.7243V50.1197C144.32 45.7706 141.596 43.2119 136.998 43.2119C133.053 43.2119 129.557 45.8122 129.557 48.778C129.557 50.0366 130.492 51.0127 131.71 51.0127C132.928 51.0127 133.864 50.0366 133.864 48.8569C133.864 48.0428 133.415 47.3117 132.766 46.9462C133.498 45.9285 134.799 45.322 136.387 45.322C138.869 45.322 140.374 47.1912 140.374 50.319V51.2536L134.354 53.7335C130.33 55.3991 128.946 56.8613 128.946 59.5031C128.946 62.5519 131.141 64.5001 134.6 64.5001C137.202 64.5001 139.36 62.9133 140.333 60.5166V61.1272C140.333 63.1999 141.796 64.4585 144.236 64.4585C145.213 64.4585 145.987 64.3381 146.797 64.093V62.7098C145.089 62.9133 144.315 62.2612 144.315 60.7201L144.32 60.7243ZM140.333 56.1343C140.129 59.7107 138.341 62.1075 135.859 62.1075C134.072 62.1075 132.932 60.8904 132.932 59.0212C132.932 57.3555 133.826 56.0554 135.535 55.3244L140.374 53.1727L140.333 56.1385V56.1343Z" fill="white"/>
<path d="M87.2179 59.0544C86.6483 60.7616 85.7129 61.8167 84.4116 61.8167C82.7029 61.8167 82.1334 60.5581 82.1334 59.096V45.9285H87.7043V43.8142H82.1334V37.5586H80.1004C79.3271 42.2731 76.9283 43.9803 74.4048 44.5079V45.9285H78.1464V59.5404C78.1464 62.7098 80.0588 64.5 83.1062 64.5C85.954 64.5 87.8248 62.4273 88.6771 59.4615L87.2137 59.0544H87.2179Z" fill="white"/>
<path d="M61.4337 60.7243V50.1197C61.4337 45.7706 58.7106 43.2119 54.1126 43.2119C50.1672 43.2119 46.6708 45.8122 46.6708 48.778C46.6708 50.0366 47.6062 51.0127 48.8244 51.0127C50.0425 51.0127 50.9779 50.0366 50.9779 48.8569C50.9779 48.0428 50.5289 47.3117 49.8803 46.9462C50.612 45.9285 51.9133 45.322 53.5014 45.322C55.9834 45.322 57.4883 47.1912 57.4883 50.319V51.2536L51.4685 53.7335C47.4441 55.3991 46.0597 56.8613 46.0597 59.5031C46.0597 62.5519 48.2548 64.5001 51.7137 64.5001C54.3163 64.5001 56.4739 62.9133 57.4468 60.5166V61.1272C57.4468 63.1999 58.9102 64.4585 61.3506 64.4585C62.3276 64.4585 63.1008 64.3381 63.9115 64.093V62.7098C62.2028 62.9133 61.4295 62.2612 61.4295 60.7201L61.4337 60.7243ZM57.4468 56.1343C57.2431 59.7107 55.4554 62.1075 52.9734 62.1075C51.1857 62.1075 50.0466 60.8904 50.0466 59.0212C50.0466 57.3555 50.9405 56.0554 52.6492 55.3244L57.4883 53.1727L57.4468 56.1385V56.1343Z" fill="white"/>
<path d="M120.851 61.9413C117.558 61.9413 115.322 58.8135 115.322 53.8539C115.322 48.8943 117.517 45.6045 120.814 45.6045C122.277 45.6045 123.416 46.0905 124.106 46.9877C123.495 47.3948 123.088 48.0843 123.088 48.8569C123.088 50.0366 124.065 51.0127 125.245 51.0127C126.426 51.0127 127.399 50.0366 127.399 48.6575C127.399 46.2193 124.959 43.2119 120.606 43.2119C114.544 43.2119 111.048 48.292 111.048 53.8581C111.048 59.4242 114.465 64.5042 120.319 64.5042C124.343 64.5042 126.622 61.8209 127.52 58.7762L125.769 58.2486C124.996 60.3214 123.612 61.9455 120.847 61.9455L120.851 61.9413Z" fill="white"/>
<path d="M71.7233 60.2757V35.1245L64.8096 35.7351V37.0768L65.7034 37.1183C66.9631 37.1599 67.7364 37.8079 67.7364 39.5151V60.2798C67.7364 61.9871 66.8841 62.5977 65.4997 62.6766L64.8886 62.7181V64.1013H74.5254V62.7181L73.9558 62.6766C72.5714 62.5935 71.7191 61.9871 71.7191 60.2798L71.7233 60.2757Z" fill="white"/>
<path d="M107.352 60.2754V49.1807C107.352 46.0113 105.398 43.3695 101.536 43.3695C98.8128 43.3695 96.4514 44.9937 95.516 47.8805V35.1201L88.6023 35.7307V37.0724L89.4961 37.1139C90.7558 37.1555 91.5291 37.8035 91.5291 39.5107V60.2754C91.5291 61.9826 90.6768 62.5933 89.2924 62.6722L88.6813 62.7137V64.0969H98.3181V62.7137L97.7486 62.6722C96.3641 62.5891 95.5119 61.9826 95.5119 60.2754V53.6128C95.595 48.7362 97.707 45.812 100.189 45.812C102.101 45.812 103.361 47.1121 103.361 49.6334V60.2796C103.361 61.9868 102.509 62.5974 101.124 62.6763L100.513 62.7179V64.1011H110.15V62.7179L109.58 62.6763C108.196 62.5933 107.344 61.9868 107.344 60.2796L107.352 60.2754Z" fill="white"/>
<path d="M36.4645 43.2075C31.1347 43.2075 27.5968 48.2876 27.5968 53.8537C27.5968 59.4198 31.0142 64.4998 36.8678 64.4998C40.9753 64.4998 43.2951 61.696 44.2305 58.5267L42.4803 58.0407C41.6654 60.2339 40.2436 61.9411 37.3958 61.9411C34.1031 61.9411 31.8664 58.8133 31.8664 53.8537H44.5132V52.674C44.5132 47.4319 41.4243 43.2075 36.4604 43.2075H36.4645ZM31.9496 51.864C32.357 47.9221 33.9826 45.5253 36.4229 45.5253C38.6596 45.5253 40.0814 47.5981 40.2436 51.864H31.9454H31.9496Z" fill="white"/>
<path d="M183.391 43.1455C182.006 43.1455 180.946 44.2047 180.946 45.6004C180.946 46.9961 181.994 48.101 183.391 48.101C184.788 48.101 185.835 47.0168 185.835 45.6253C185.835 44.2338 184.775 43.1497 183.391 43.1497V43.1455ZM183.391 47.6939C182.235 47.6939 181.387 46.8258 181.387 45.6212C181.387 44.4166 182.235 43.536 183.399 43.536C184.563 43.536 185.39 44.4166 185.39 45.6087C185.39 46.8008 184.555 47.6939 183.387 47.6939H183.391Z" fill="white"/>
<path d="M184.126 45.6916C184.447 45.5504 184.555 45.3925 184.555 45.0228C184.555 44.5244 184.255 44.2627 183.698 44.2627H182.389V46.9876H182.817V45.891H183.557C183.952 45.891 184.068 46.0447 184.093 46.485C184.106 46.7716 184.106 46.7965 184.176 46.9834H184.667C184.609 46.9377 184.534 46.7217 184.534 46.5805C184.509 45.9242 184.451 45.8079 184.131 45.6874L184.126 45.6916ZM183.648 45.5379H182.813V44.6448H183.611C183.956 44.6448 184.11 44.7778 184.11 45.0727C184.11 45.3676 183.944 45.5379 183.644 45.5379H183.648Z" fill="white"/>
</g>
<defs>
<clipPath id="clip0_48_462">
<rect width="187.864" height="64.5" fill="white"/>
</clipPath>
</defs>
</svg>
